<?xml version="1.0" standalone="no"?>
<!DOCTYPE svg PUBLIC "-//W3C//DTD SVG 20010904//EN"
 "http://www.w3.org/TR/2001/REC-SVG-20010904/DTD/svg10.dtd">
<svg version="1.0" xmlns="http://www.w3.org/2000/svg"
 width="200.000000pt" height="200.000000pt" viewBox="0 0 200.000000 200.000000"
 preserveAspectRatio="xMidYMid meet">

<g transform="translate(0.000000,200.000000) scale(0.100000,-0.100000)"
fill="#000000" stroke="none">
<path d="M600 1852 c0 -5 30 -18 68 -30 37 -12 52 -19 35 -17 -18 2 -33 1 -33
-3 1 -4 26 -25 56 -47 30 -21 71 -61 90 -87 48 -65 80 -88 121 -88 20 0 32 4
28 10 -12 19 13 10 71 -29 70 -45 99 -75 113 -116 10 -26 9 -28 -3 -12 -16 21
-36 22 -36 2 0 -9 29 -118 65 -243 35 -125 76 -292 90 -372 37 -206 59 -280
86 -280 5 0 9 8 9 18 1 12 5 9 16 -10 8 -16 19 -28 24 -28 15 0 12 65 -10 265
-36 322 -55 401 -130 562 -45 96 -103 163 -201 230 -59 40 -67 48 -52 56 10 5
37 28 60 49 22 22 46 37 52 34 18 -12 12 20 -9 46 -32 41 -94 61 -184 60 -47
-1 -116 7 -168 18 -92 21 -158 26 -158 12z"/>
<path d="M808 1049 c-4 -14 -11 -66 -15 -115 -4 -49 -9 -81 -11 -71 -5 24 -19
21 -26 -5 -27 -104 29 -378 78 -378 9 0 16 4 16 10 0 5 7 7 16 3 43 -16 45 82
5 198 -26 76 -41 170 -54 349 -2 33 -2 34 -9 9z"/>
<path d="M1004 321 c-30 -6 -84 -57 -84 -79 0 -6 -14 -24 -31 -40 -28 -26 -30
-32 -19 -52 11 -21 16 -22 86 -15 57 5 85 3 124 -10 52 -17 120 -14 120 5 0 6
11 10 23 10 23 0 24 3 23 66 -1 59 -4 68 -29 90 -36 31 -53 30 -61 -1 -4 -14
-12 -25 -19 -25 -8 0 -20 -15 -29 -32 l-16 -33 -21 45 c-11 25 -21 53 -21 63
0 9 -3 16 -7 16 -5 -1 -22 -4 -39 -8z"/>
</g>
</svg>
