<?xml version="1.0" standalone="no"?>
<!DOCTYPE svg PUBLIC "-//W3C//DTD SVG 20010904//EN"
 "http://www.w3.org/TR/2001/REC-SVG-20010904/DTD/svg10.dtd">
<svg version="1.0" xmlns="http://www.w3.org/2000/svg"
 width="200.000000pt" height="200.000000pt" viewBox="0 0 200.000000 200.000000"
 preserveAspectRatio="xMidYMid meet">

<g transform="translate(0.000000,200.000000) scale(0.100000,-0.100000)"
fill="#000000" stroke="none">
<path d="M546 1821 c-16 -3 -33 -13 -39 -22 -24 -38 19 -69 94 -69 28 0 39 -4
37 -12 -6 -17 -57 -23 -71 -9 -17 17 -67 14 -67 -4 0 -21 41 -35 100 -35 55 0
83 8 74 21 -3 5 2 6 10 3 12 -5 16 0 16 17 0 40 -13 49 -78 55 -34 4 -62 11
-62 15 0 5 3 9 8 10 4 0 17 2 29 5 12 2 25 -1 28 -6 3 -6 23 -10 43 -10 36 0
36 0 17 19 -22 20 -93 32 -139 22z"/>
<path d="M1323 1820 c-24 -10 -31 -44 -12 -56 7 -4 2 -11 -13 -18 -30 -15 -35
-51 -9 -65 25 -14 199 -13 207 1 4 6 1 14 -5 18 -8 4 -10 17 -5 33 5 24 3 27
-20 27 -16 0 -26 -6 -26 -15 0 -18 -12 -19 -28 -3 -9 9 -6 14 10 22 46 23 28
57 -33 62 -24 2 -54 -1 -66 -6z m75 -32 c-3 -7 -13 -13 -23 -13 -10 0 -20 6
-22 13 -3 7 5 12 22 12 17 0 25 -5 23 -12z m-28 -69 l25 -20 -30 3 c-19 2 -31
9 -33 21 -4 22 7 21 38 -4z"/>
<path d="M721 1745 l0 -75 30 0 29 0 0 75 0 75 -29 0 -30 0 0 -75z"/>
<path d="M810 1746 l0 -73 70 -2 c51 -1 70 2 70 11 0 9 3 8 10 -2 8 -12 10
-11 10 8 0 20 -5 22 -55 22 l-55 0 0 55 c0 52 -1 55 -25 55 -24 0 -25 -2 -25
-74z"/>
<path d="M992 1745 c2 -75 2 -75 30 -75 25 0 28 3 28 36 l0 36 40 -36 c30 -27
49 -36 74 -36 l35 0 -45 43 -45 42 42 33 43 32 -35 0 c-24 0 -46 -10 -72 -31
l-37 -30 0 30 c0 28 -3 31 -30 31 l-29 0 1 -75z"/>
<path d="M793 1623 l-83 -4 0 -73 0 -74 85 1 c75 0 85 3 85 19 0 15 -9 18 -59
18 -33 0 -62 4 -65 8 -5 9 0 10 74 14 33 2 46 7 48 21 3 14 -5 17 -52 17 -38
0 -56 4 -56 13 0 8 16 11 55 9 50 -4 55 -2 55 17 0 12 -1 20 -2 19 -2 -1 -40
-4 -85 -5z"/>
<path d="M936 1552 c-20 -40 -36 -74 -36 -75 0 -10 54 0 58 11 6 18 87 16 102
-3 14 -17 46 -20 55 -5 8 13 -19 52 -29 43 -4 -4 -4 1 0 11 6 15 4 17 -6 11
-9 -5 -11 -4 -6 3 4 6 0 25 -8 41 -12 23 -23 30 -55 33 l-39 3 -36 -73z m84
18 c0 -11 5 -20 10 -20 6 0 10 -4 10 -10 0 -17 -57 -12 -64 6 -3 8 -2 12 3 9
5 -3 12 4 16 15 8 26 25 26 25 0z m-60 -56 c0 -8 -19 -13 -24 -6 -3 5 1 9 9 9
8 0 15 -2 15 -3z"/>
<path d="M1355 1623 c-32 -8 -44 -23 -40 -45 6 -29 20 -36 83 -44 32 -4 51
-11 49 -18 -5 -16 -37 -20 -62 -6 -12 6 -34 10 -49 8 -25 -3 -26 -5 -13 -22
11 -15 29 -21 78 -23 72 -4 112 11 117 43 4 30 -18 43 -82 52 -31 4 -55 12
-54 17 3 10 28 10 91 -1 39 -6 48 4 23 25 -16 14 -110 23 -141 14z"/>
<path d="M482 1546 l-1 -74 92 2 c51 1 98 5 105 9 17 11 15 56 -3 63 -11 5
-12 10 -3 24 6 9 8 25 5 34 -5 13 -23 16 -100 16 l-94 0 -1 -74z m109 44 c21
0 39 -4 39 -10 0 -5 -20 -10 -45 -10 -40 0 -45 2 -44 23 0 12 3 16 6 10 2 -8
22 -13 44 -13z m39 -64 c0 -17 -23 -23 -62 -18 -48 7 -34 32 17 32 32 0 45 -4
45 -14z"/>
<path d="M1110 1605 c0 -10 10 -15 33 -15 l32 0 -2 -60 -2 -60 30 0 c29 0 29
0 29 60 0 43 4 60 13 59 32 -4 54 2 54 16 0 12 -17 15 -94 15 -76 0 -93 -3
-93 -15z"/>
<path d="M1398 1333 c6 -2 18 -2 25 0 6 3 1 5 -13 5 -14 0 -19 -2 -12 -5z"/>
<path d="M1478 1333 c7 -3 16 -2 19 1 4 3 -2 6 -13 5 -11 0 -14 -3 -6 -6z"/>
<path d="M1325 1301 c-11 -5 -41 -31 -66 -57 -26 -27 -67 -68 -93 -91 -43 -39
-46 -46 -46 -92 0 -34 6 -56 20 -72 l19 -24 -9 33 c-9 32 -3 41 16 23 5 -5 26
-13 46 -16 34 -6 39 -5 47 17 11 29 37 52 49 44 6 -3 13 -21 16 -40 9 -47 27
-59 94 -60 41 -1 61 -6 70 -18 13 -18 72 -38 107 -37 17 0 15 3 -7 13 -37 16
-78 56 -78 75 1 10 7 5 16 -11 8 -15 23 -32 34 -38 32 -17 32 -11 -2 18 l-31
29 16 42 c31 77 39 131 26 183 -17 72 -43 88 -143 87 -44 0 -90 -4 -101 -8z
m104 -27 c43 -9 54 -34 46 -104 l-7 -58 -31 7 c-37 8 -67 4 -67 -9 0 -5 -16
-12 -35 -16 -27 -5 -41 -2 -55 11 -10 9 -37 19 -59 22 -23 3 -41 8 -41 12 0 3
18 17 40 30 21 13 50 35 63 47 31 29 88 64 103 64 6 0 26 -3 43 -6z m24 -181
c-7 -2 -19 -2 -25 0 -7 3 -2 5 12 5 14 0 19 -2 13 -5z"/>
<path d="M1237 1154 c-3 -4 10 -15 30 -25 43 -22 58 -15 24 12 -24 19 -43 24
-54 13z"/>
<path d="M610 1133 c-89 -32 -99 -55 -74 -166 19 -82 87 -254 109 -276 13 -14
15 -12 15 16 0 27 4 31 38 37 55 9 60 8 67 -14 9 -27 66 -60 107 -60 33 0 68
24 68 46 0 6 6 19 14 30 14 18 15 18 25 -6 6 -14 15 -32 20 -40 5 -8 12 -23
15 -32 8 -26 52 -23 70 4 24 34 20 85 -9 114 -20 20 -25 35 -25 72 0 53 -35
135 -73 169 -75 70 -293 133 -367 106z m229 -115 c6 -17 -3 -97 -12 -104 -1
-1 -19 -4 -39 -7 l-36 -5 24 35 c13 19 26 50 30 69 7 39 21 44 33 12z m121
-134 c0 -7 -4 -14 -10 -16 -18 -6 2 -48 27 -54 19 -5 21 -9 11 -15 -20 -13
-22 -12 -59 24 -33 33 -47 68 -26 64 6 -1 16 8 22 21 9 21 11 21 22 5 7 -9 13
-22 13 -29z m-156 -16 c-15 -37 -124 -76 -124 -45 0 20 24 38 63 47 50 12 67
11 61 -2z"/>
<path d="M1295 980 c3 -5 8 -10 11 -10 2 0 4 5 4 10 0 6 -5 10 -11 10 -5 0 -7
-4 -4 -10z"/>
<path d="M1217 923 c-4 -3 -1 -13 6 -21 10 -13 9 -14 -2 -7 -9 5 -12 4 -7 -3
9 -14 61 -25 85 -17 20 6 20 6 -1 31 -20 23 -66 33 -81 17z m49 -31 c-17 -16
-18 -16 -5 5 7 12 15 20 18 17 3 -2 -3 -12 -13 -22z"/>
<path d="M1450 858 c0 -5 13 -8 29 -8 17 0 32 3 34 8 3 4 -10 7 -29 7 -19 0
-34 -3 -34 -7z"/>
<path d="M1435 819 c-4 -6 -4 -13 -1 -16 3 -4 6 -1 6 5 0 6 8 13 18 15 15 4
15 5 0 6 -9 0 -20 -4 -23 -10z"/>
<path d="M1526 785 c-11 -8 -15 -15 -9 -15 6 0 16 7 23 15 16 19 11 19 -14 0z"/>
<path d="M1598 793 c7 -3 16 -2 19 1 4 3 -2 6 -13 5 -11 0 -14 -3 -6 -6z"/>
<path d="M1600 673 c-25 -11 -53 -14 -96 -10 -74 7 -118 -14 -129 -62 -5 -24
-12 -31 -30 -31 -28 0 -46 -26 -89 -132 -19 -46 -43 -105 -55 -132 -16 -37
-19 -52 -10 -62 9 -11 8 -14 -2 -14 -11 0 -11 -3 1 -11 10 -7 11 -12 4 -15 -6
-3 -10 -27 -8 -61 2 -31 -1 -64 -7 -74 -6 -12 -5 -20 1 -24 6 -4 8 -15 5 -26
-6 -17 -1 -19 43 -19 54 0 67 7 51 27 -14 16 -24 141 -15 178 4 16 11 23 18
19 7 -4 8 -3 4 5 -5 7 -16 9 -29 5 -17 -5 -15 -1 10 20 26 22 36 25 50 17 16
-9 16 -10 -4 -11 -12 0 -25 -4 -28 -10 -3 -5 0 -10 8 -10 10 0 13 -7 10 -20
-3 -11 -10 -17 -15 -13 -6 3 -9 0 -6 -8 3 -8 17 -13 34 -12 20 1 22 0 7 -4
-25 -5 -32 -33 -9 -33 15 0 42 -28 34 -35 -10 -10 -38 7 -31 19 3 6 0 5 -8 -2
-12 -11 -11 -16 6 -29 l20 -15 -20 4 c-15 2 -20 11 -20 35 -1 18 -3 35 -7 38
-3 4 -5 -18 -5 -47 1 -42 6 -57 24 -71 12 -10 20 -24 16 -32 -4 -12 6 -15 51
-15 49 0 71 10 49 23 -5 2 -2 2 5 1 6 -2 12 5 12 16 0 10 7 23 16 28 15 8 15
10 -1 16 -9 3 -21 4 -25 1 -5 -3 -11 -1 -14 3 -3 5 5 9 17 8 12 -1 25 3 29 9
5 6 8 3 8 -7 0 -9 6 -19 13 -21 9 -4 9 -6 -1 -6 -7 -1 -10 -6 -7 -11 3 -6 -1
-13 -9 -16 -9 -3 -16 -14 -16 -24 0 -15 12 -17 99 -18 94 -2 100 -1 98 18 -1
11 -6 20 -12 20 -6 0 -7 3 0 8 6 4 10 43 11 87 1 77 -13 81 -16 5 -2 -32 -3
-33 -9 -10 -5 15 -3 39 6 59 11 28 11 36 1 43 -7 4 -9 8 -4 8 6 0 20 -10 33
-22 22 -21 34 -13 12 9 -6 6 -11 27 -11 46 0 20 -7 44 -15 54 -8 10 -12 12 -8
5 4 -7 1 -21 -7 -30 -12 -16 -11 -16 6 -2 17 13 19 13 14 0 -2 -8 -13 -15 -24
-16 -27 -1 -38 7 -23 17 10 6 11 11 2 20 -8 8 -13 6 -18 -11 -4 -13 -12 -19
-21 -16 -8 3 -20 -1 -26 -10 -20 -23 -69 -74 -72 -74 -2 0 -3 13 -4 29 0 22 9
37 35 60 20 17 41 31 47 31 6 0 23 6 37 13 30 16 115 15 146 -1 31 -17 39 3 9
23 -14 9 -31 13 -38 9 -10 -5 -10 -4 -1 6 6 7 9 18 6 26 -2 7 12 -2 32 -21 29
-28 34 -38 26 -53 -10 -19 -10 -47 1 -58 4 -3 4 -12 1 -20 -4 -10 -9 -9 -22 7
-16 20 -18 20 -34 4 -9 -9 -17 -13 -17 -9 0 5 12 18 28 30 15 12 24 25 21 29
-10 9 -55 -37 -61 -63 -4 -12 -2 -20 3 -16 5 3 9 -8 9 -25 0 -16 4 -32 9 -35
5 -3 7 -16 4 -28 -4 -13 0 -25 10 -33 15 -11 14 -13 -9 -24 -19 -8 -24 -16
-19 -29 4 -9 10 -25 12 -35 3 -10 12 -16 19 -13 8 3 14 1 14 -4 0 -6 35 -10
80 -10 73 0 80 2 80 19 0 11 -11 32 -25 47 -14 15 -25 22 -25 15 0 -6 6 -14
14 -17 8 -3 13 -13 11 -22 -1 -9 3 -21 9 -25 7 -6 7 -7 -2 -5 -8 2 -13 7 -12
12 1 5 -2 12 -7 15 -14 10 -33 61 -23 61 6 0 10 8 10 18 1 13 4 11 15 -8 18
-31 19 -18 3 27 -13 35 -34 44 -40 16 -2 -12 -11 -5 -30 25 -28 42 -25 56 12
57 8 0 14 8 14 18 -1 10 3 16 10 14 6 -2 10 -14 8 -25 -2 -12 2 -22 8 -22 6 0
8 -5 5 -10 -3 -6 -2 -10 2 -10 5 0 15 -20 22 -45 7 -25 15 -44 18 -41 6 5 -32
129 -49 159 -6 12 -13 27 -14 34 -1 6 -7 19 -13 30 -10 17 -10 17 -11 -2 -1
-15 -3 -16 -7 -5 -9 22 -40 61 -49 60 -4 0 -9 7 -10 16 -2 9 -7 20 -12 23 -5
3 -14 15 -20 26 -11 19 -11 18 -12 -8 0 -16 -4 -26 -8 -23 -4 2 -7 20 -7 39 2
34 1 35 -28 25 -16 -6 -25 -13 -20 -17 4 -3 9 -15 11 -26 2 -15 -1 -13 -13 8
-21 37 -80 38 -119 2 -28 -26 -34 -40 -12 -32 11 4 11 1 2 -19 -8 -16 -12 -19
-14 -9 -2 8 -8 15 -14 15 -6 0 -8 -10 -4 -25 4 -15 2 -25 -4 -25 -6 0 -8 5 -5
10 3 6 1 10 -5 10 -7 0 -9 -8 -5 -19 3 -11 0 -23 -6 -27 -8 -5 -9 -3 -4 7 7
12 6 12 -7 1 -21 -16 -29 -80 -11 -86 7 -3 13 -10 13 -15 0 -6 -6 -8 -14 -5
-18 7 -30 -27 -14 -39 9 -6 8 -7 -4 -3 -12 4 -18 0 -18 -11 0 -9 -3 -14 -6
-10 -4 3 -2 19 3 34 5 15 6 43 3 60 -4 18 -5 33 -1 33 3 0 14 21 25 46 10 24
23 51 30 57 6 7 22 26 36 41 l25 29 -25 -13 c-36 -18 -60 -41 -54 -52 3 -4 0
-7 -7 -6 -7 2 -24 -21 -39 -49 -15 -29 -30 -50 -33 -46 -4 3 -7 -1 -7 -10 0
-9 -5 -17 -11 -17 -11 0 16 49 60 110 56 77 101 100 201 100 60 0 120 28 120
55 0 19 -53 145 -60 144 -3 0 -21 -8 -40 -16z m65 -203 c3 -5 1 -10 -4 -10 -6
0 -11 5 -11 10 0 6 2 10 4 10 3 0 8 -4 11 -10z m-85 -33 c27 -7 15 -42 -16
-45 -23 -2 -29 7 -25 36 1 6 -3 12 -9 12 -6 0 -8 5 -4 11 4 8 9 7 15 -2 7 -11
9 -9 10 6 1 15 2 16 6 4 2 -10 13 -19 23 -22z m30 7 c0 -2 -9 0 -20 6 -11 6
-20 13 -20 16 0 2 9 0 20 -6 11 -6 20 -13 20 -16z m54 -19 c3 -8 1 -15 -4 -15
-6 0 -10 7 -10 15 0 8 2 15 4 15 2 0 6 -7 10 -15z m13 -29 c-19 -15 -105 -31
-115 -22 -3 3 4 6 16 6 12 0 22 4 22 9 0 5 14 8 30 7 17 -1 36 1 43 6 20 13
23 8 4 -6z m-161 -12 c-4 -12 -1 -14 14 -9 11 4 20 2 20 -4 0 -6 -14 -11 -31
-11 -25 0 -29 3 -20 13 6 8 8 17 4 20 -3 4 -1 7 6 7 8 0 11 -6 7 -16z m4 -39
c0 -2 -13 -7 -28 -13 -21 -7 -29 -7 -29 2 0 6 13 12 29 13 15 0 28 -1 28 -2z
m-70 -29 c0 -3 -4 -8 -10 -11 -5 -3 -10 -1 -10 4 0 6 5 11 10 11 6 0 10 -2 10
-4z m345 -16 c10 -11 14 -20 9 -20 -5 0 -15 9 -22 20 -7 11 -11 20 -9 20 2 0
12 -9 22 -20z m-345 -24 c0 -19 -17 -29 -25 -16 -3 5 0 10 7 10 9 0 9 3 -2 10
-13 8 -12 10 3 10 9 0 17 -6 17 -14z m-103 -18 c-3 -8 -6 -5 -6 6 -1 11 2 17
5 13 3 -3 4 -12 1 -19z m249 9 c12 -12 -26 -14 -42 -2 -16 11 -15 12 10 10 15
-2 30 -5 32 -8z m-58 -42 c-6 -14 -13 -23 -15 -21 -3 2 0 13 6 24 6 11 7 23 3
27 -4 5 -2 5 5 1 9 -5 10 -13 1 -31z m-178 -31 c0 -2 -9 0 -20 6 -11 6 -20 13
-20 16 0 2 9 0 20 -6 11 -6 20 -13 20 -16z m149 -8 c12 -11 21 -23 21 -28 0
-5 -11 4 -24 19 l-25 28 -34 -39 c-30 -33 -37 -37 -56 -27 -11 7 -21 14 -21
17 0 2 9 0 19 -6 27 -14 31 -13 31 9 0 11 2 26 5 33 8 20 59 16 84 -6z m56
-14 c-3 -3 -11 0 -18 7 -9 10 -8 11 6 5 10 -3 15 -9 12 -12z m-218 -8 c-3 -3
-12 -4 -19 -1 -8 3 -5 6 6 6 11 1 17 -2 13 -5z m163 -36 c0 -15 5 -30 11 -34
8 -4 7 -9 -2 -15 -12 -7 -11 -9 1 -10 8 -1 18 -1 22 0 4 0 5 -6 2 -14 -4 -8
-10 -15 -16 -15 -5 0 -7 4 -4 9 4 5 0 11 -6 13 -7 3 -13 13 -13 24 0 10 -6 18
-13 16 -10 -2 -10 2 -2 18 8 15 8 21 -2 24 -38 12 -40 15 -10 13 28 -1 32 -5
32 -29z m88 19 c8 -9 8 -17 0 -27 -8 -12 -9 -12 -4 2 3 10 -2 22 -12 27 -9 6
-12 11 -6 11 6 0 16 -6 22 -13z m-214 -40 c7 -6 6 -7 -4 -4 -8 2 -16 12 -17
23 -2 13 -1 15 4 4 3 -8 11 -19 17 -23z m191 14 c3 -5 0 -13 -6 -17 -7 -4 -9
-3 -5 4 3 5 0 13 -6 15 -9 4 -10 6 -1 6 6 1 14 -3 18 -8z m255 -1 c0 -5 -2
-10 -4 -10 -3 0 -8 5 -11 10 -3 6 -1 10 4 10 6 0 11 -4 11 -10z m-213 -47 c0
-16 -1 -20 -4 -10 -5 20 -14 22 -30 6 -8 -8 -13 -7 -18 2 -5 8 -4 10 4 5 6 -4
14 0 17 8 10 26 30 18 31 -11z m112 -35 c-9 -17 -14 -19 -17 -8 -3 7 0 16 7
18 6 2 11 8 11 13 0 4 -7 6 -15 3 -8 -4 -15 -2 -15 4 0 16 24 20 33 6 4 -8 2
-24 -4 -36z m-299 28 c0 -2 -8 -10 -17 -17 -16 -13 -17 -12 -4 4 13 16 21 21
21 13z m127 -48 c-3 -8 -6 -5 -6 6 -1 11 2 17 5 13 3 -3 4 -12 1 -19z m54 -1
c-10 -9 -11 -8 -5 6 3 10 9 15 12 12 3 -3 0 -11 -7 -18z m139 7 c0 -8 -5 -12
-10 -9 -6 4 -8 11 -5 16 9 14 15 11 15 -7z"/>
<path d="M1553 419 c-2 -22 10 -25 26 -5 9 11 7 15 -7 18 -12 4 -18 -1 -19
-13z"/>
<path d="M1250 633 c-36 -25 -41 -34 -35 -73 4 -22 -2 -61 -16 -105 l-22 -70
-12 48 c-11 45 -21 65 -28 56 -2 -2 -13 -31 -25 -64 -19 -53 -20 -61 -7 -71 9
-6 13 -18 9 -27 -10 -28 50 -4 61 24 6 13 25 53 44 89 88 167 84 156 69 184
-13 25 -14 26 -38 9z"/>
<path d="M1710 475 c13 -14 26 -25 28 -25 3 0 -5 11 -18 25 -13 14 -26 25 -28
25 -3 0 5 -11 18 -25z"/>
<path d="M1765 406 c10 -14 19 -26 22 -26 7 0 -17 39 -28 46 -6 3 -3 -5 6 -20z"/>
<path d="M1670 315 c0 -8 6 -15 14 -15 22 0 28 17 10 24 -22 9 -24 8 -24 -9z"/>
<path d="M1506 295 c-11 -8 -15 -15 -9 -15 6 0 16 7 23 15 16 19 11 19 -14 0z"/>
<path d="M1131 293 c-1 -6 -4 -20 -7 -30 -5 -17 -5 -17 6 0 6 10 9 23 6 30 -3
9 -5 9 -5 0z"/>
<path d="M1776 222 c-9 -15 40 -51 55 -41 11 7 9 9 -6 9 -15 0 -17 2 -6 9 9 6
10 11 2 15 -6 4 -11 2 -11 -4 0 -7 -6 -10 -12 -7 -7 2 -12 10 -10 16 2 13 -5
15 -12 3z"/>
<path d="M615 202 c-22 -20 -131 -52 -155 -46 -71 17 -76 17 -89 -12 -10 -22
-10 -26 1 -18 18 14 123 17 179 6 l47 -9 21 37 c12 21 21 40 21 44 0 9 -14 7
-25 -2z"/>
<path d="M1675 120 c-3 -5 -5 -10 -3 -11 33 -8 38 -7 27 7 -14 17 -16 17 -24
4z"/>
<path d="M1891 84 c0 -11 3 -14 6 -6 3 7 2 16 -1 19 -3 4 -6 -2 -5 -13z"/>
<path d="M783 35 c0 -22 2 -30 4 -17 2 12 2 30 0 40 -3 9 -5 -1 -4 -23z"/>
<path d="M1133 25 c-26 -23 -27 -24 -7 -25 12 0 25 7 28 16 3 8 10 12 16 9 5
-3 10 -2 10 4 0 22 -20 20 -47 -4z"/>
<path d="M1900 30 c0 -11 4 -20 9 -20 5 0 7 9 4 20 -3 11 -7 20 -9 20 -2 0 -4
-9 -4 -20z"/>
</g>
</svg>
