<?xml version="1.0" standalone="no"?>
<!DOCTYPE svg PUBLIC "-//W3C//DTD SVG 20010904//EN"
 "http://www.w3.org/TR/2001/REC-SVG-20010904/DTD/svg10.dtd">
<svg version="1.0" xmlns="http://www.w3.org/2000/svg"
 width="200.000000pt" height="200.000000pt" viewBox="0 0 200.000000 200.000000"
 preserveAspectRatio="xMidYMid meet">

<g transform="translate(0.000000,200.000000) scale(0.100000,-0.100000)"
fill="#000000" stroke="none">
<path d="M813 1563 c15 -2 37 -2 50 0 12 2 0 4 -28 4 -27 0 -38 -2 -22 -4z"/>
<path d="M825 1543 c-54 -4 -74 -13 -75 -35 0 -12 115 -9 189 4 66 11 66 11
36 24 -16 7 -43 12 -60 12 -16 -1 -57 -3 -90 -5z"/>
<path d="M985 1504 c-27 -8 -92 -15 -143 -16 -76 -2 -92 -5 -90 -17 8 -41 185
-34 290 11 42 18 47 23 32 29 -24 10 -29 9 -89 -7z"/>
<path d="M1055 1467 c-60 -26 -86 -31 -181 -35 -105 -4 -111 -6 -106 -24 5
-19 12 -20 111 -16 94 3 114 7 171 35 36 17 74 37 84 45 37 29 -7 25 -79 -5z"/>
<path d="M1134 1450 c-78 -55 -139 -73 -251 -74 -104 -1 -121 -8 -88 -36 11
-9 41 -11 106 -8 76 5 100 11 157 39 37 19 66 39 65 46 -2 7 3 10 10 7 7 -2
26 9 42 26 37 39 14 39 -41 0z"/>
<path d="M1171 1420 c-88 -76 -205 -116 -317 -107 -56 4 -61 3 -57 -14 6 -23
65 -33 145 -24 66 8 185 63 180 84 -1 7 1 10 6 7 5 -3 19 6 33 19 80 78 87
103 10 35z"/>
<path d="M1204 1392 c-16 -22 -32 -40 -37 -40 -17 -3 -66 -46 -61 -54 3 -5 0
-8 -7 -7 -8 2 -39 -6 -69 -16 -36 -13 -83 -19 -137 -20 -46 0 -83 -2 -83 -5 0
-3 5 -12 10 -20 16 -26 153 -18 220 12 63 29 120 73 120 94 0 9 4 13 9 10 9
-6 76 72 68 80 -2 3 -18 -13 -33 -34z m-114 -111 c0 -5 -7 -12 -16 -15 -14 -5
-15 -4 -4 9 14 17 20 19 20 6z"/>
<path d="M1190 1327 c-25 -28 -64 -62 -87 -76 -27 -17 -39 -31 -35 -38 5 -9
36 15 92 72 46 46 82 86 79 88 -2 2 -24 -19 -49 -46z"/>
<path d="M1010 1208 c-14 -6 -60 -11 -103 -11 -65 -1 -77 -3 -75 -16 6 -31
204 -22 223 10 3 4 -8 4 -25 -1 -37 -11 -38 -5 -2 14 31 17 19 20 -18 4z"/>
<path d="M927 1143 c-83 -4 -87 -5 -77 -23 9 -16 21 -20 69 -20 48 0 61 4 81
25 13 14 22 24 19 23 -2 -1 -43 -4 -92 -5z"/>
<path d="M1353 953 c12 -3 17 -15 17 -41 0 -28 -3 -33 -12 -24 -19 19 -55 14
-72 -10 -9 -12 -16 -42 -16 -65 0 -34 5 -46 25 -59 16 -10 32 -13 47 -8 13 4
37 7 53 6 25 -2 27 -1 13 8 -15 9 -18 26 -18 105 l0 95 -27 -1 c-17 -1 -21 -3
-10 -6z m5 -85 c7 -7 12 -28 12 -48 0 -56 -47 -84 -70 -41 -31 59 16 131 58
89z"/>
<path d="M1460 950 c0 -5 7 -10 15 -10 8 0 15 5 15 10 0 6 -7 10 -15 10 -8 0
-15 -4 -15 -10z"/>
<path d="M360 930 c0 -11 5 -20 10 -20 6 0 10 5 10 10 0 6 11 10 25 10 25 0
25 -1 25 -84 0 -59 -4 -86 -12 -89 -7 -2 4 -6 25 -8 20 -3 37 -1 37 3 0 4 -4
8 -10 8 -6 0 -10 35 -10 85 0 84 0 85 25 85 14 0 25 -4 25 -10 0 -5 5 -10 10
-10 6 0 10 9 10 20 0 18 -7 20 -85 20 -78 0 -85 -2 -85 -20z"/>
<path d="M949 923 c-6 -15 -22 -57 -36 -93 -13 -36 -30 -68 -36 -72 -7 -4 4
-8 23 -8 22 0 30 3 22 8 -7 5 -10 16 -6 26 5 13 16 16 53 14 38 -3 46 -6 46
-23 0 -25 12 -34 37 -27 13 3 16 7 8 12 -6 4 -26 47 -44 96 -19 48 -39 90 -45
92 -6 2 -16 -9 -22 -25z m39 -52 c16 -52 16 -51 -18 -51 -16 0 -30 3 -30 6 0
17 24 84 30 84 4 0 12 -17 18 -39z"/>
<path d="M560 880 c-43 -43 -15 -140 40 -140 33 0 70 44 70 83 0 64 -68 99
-110 57z m80 -32 c13 -25 13 -31 0 -55 -28 -51 -80 -35 -80 25 0 63 50 82 80
30z"/>
<path d="M700 890 c0 -5 5 -10 10 -10 15 0 13 -177 -2 -183 -7 -3 5 -6 27 -6
32 0 36 2 23 10 -10 5 -18 21 -18 35 0 22 2 23 21 14 29 -16 64 -5 77 25 33
72 -17 148 -77 115 -14 -7 -21 -7 -21 0 0 5 -9 10 -20 10 -11 0 -20 -4 -20
-10z m109 -24 c7 -8 11 -31 9 -52 -6 -72 -70 -72 -76 0 -4 41 11 66 38 66 10
0 23 -6 29 -14z"/>
<path d="M1085 891 c-3 -6 -1 -11 4 -11 6 0 11 -21 11 -49 0 -33 6 -56 19 -72
17 -21 23 -23 48 -13 17 6 38 7 51 3 13 -5 22 -4 22 1 0 6 -4 10 -10 10 -6 0
-10 30 -10 70 0 63 -2 70 -20 70 -11 0 -20 -4 -20 -10 0 -5 5 -10 10 -10 6 0
10 -22 10 -49 0 -52 -16 -75 -47 -69 -14 3 -19 16 -23 68 -4 50 -9 66 -22 68
-9 2 -19 -2 -23 -7z"/>
<path d="M1440 891 c0 -5 7 -12 16 -15 12 -5 15 -17 12 -57 -2 -28 -10 -54
-17 -58 -9 -6 -1 -10 23 -13 20 -2 36 0 36 4 0 4 -4 8 -10 8 -6 0 -10 30 -10
70 0 68 -1 70 -25 70 -14 0 -25 -4 -25 -9z"/>
<path d="M1560 880 c-45 -45 -14 -140 45 -140 38 0 65 33 65 80 0 47 -27 80
-65 80 -14 0 -34 -9 -45 -20z m67 -8 c21 -14 26 -60 9 -87 -9 -14 -22 -25 -28
-25 -21 0 -48 33 -48 57 0 50 32 77 67 55z"/>
</g>
</svg>
