<?xml version="1.0" standalone="no"?>
<!DOCTYPE svg PUBLIC "-//W3C//DTD SVG 20010904//EN"
 "http://www.w3.org/TR/2001/REC-SVG-20010904/DTD/svg10.dtd">
<svg version="1.0" xmlns="http://www.w3.org/2000/svg"
 width="200.000000pt" height="200.000000pt" viewBox="0 0 200.000000 200.000000"
 preserveAspectRatio="xMidYMid meet">

<g transform="translate(0.000000,200.000000) scale(0.100000,-0.100000)"
fill="#000000" stroke="none">
<path d="M0 1000 l0 -1000 1000 0 1000 0 0 1000 0 1000 -1000 0 -1000 0 0
-1000z m1201 134 c-18 -30 -19 -39 -9 -53 8 -10 4 -9 -10 4 -13 11 -19 21 -13
23 6 2 18 17 26 33 9 16 18 29 21 29 3 0 -4 -16 -15 -36z m184 -10 c9 -15 12
-23 6 -20 -11 7 -35 46 -28 46 3 0 12 -12 22 -26z m-763 -7 c-7 -8 -6 -18 4
-31 23 -32 16 -39 -10 -9 -22 25 -22 29 -7 40 21 16 26 16 13 0z m89 -7 c-12
-7 -11 -11 2 -25 27 -26 20 -31 -8 -5 -23 21 -23 24 -7 36 9 7 19 10 22 8 2
-3 -2 -9 -9 -14z m232 9 c-9 -9 -8 -18 5 -38 l16 -26 -27 24 c-25 22 -25 25
-9 37 21 16 30 18 15 3z m185 -15 c2 -1 -7 -8 -20 -15 -20 -11 -21 -10 -11 3
10 11 10 17 0 28 -10 11 -8 11 8 0 11 -8 22 -15 23 -16z m-248 1 c0 -1 -10
-10 -22 -21 -17 -14 -20 -15 -9 -2 7 9 10 22 6 27 -3 7 0 8 9 5 9 -3 16 -7 16
-9z m390 0 c0 -1 -10 -10 -22 -21 -17 -14 -20 -15 -9 -2 7 9 10 22 6 27 -3 7
0 8 9 5 9 -3 16 -7 16 -9z m-966 -552 l46 -48 0 48 c0 35 4 47 15 47 12 0 15
-14 15 -68 0 -38 -3 -71 -6 -75 -4 -3 -28 17 -54 46 l-47 51 1 -48 c1 -32 -4
-51 -11 -53 -10 -4 -13 15 -13 71 0 42 2 76 4 76 3 0 25 -21 50 -47z m216 37
c0 -5 -16 -10 -35 -10 -28 0 -35 -4 -35 -20 0 -16 7 -20 30 -20 17 0 30 -4 30
-10 0 -5 -13 -10 -30 -10 -23 0 -30 -4 -30 -20 0 -16 7 -20 35 -20 24 0 35 -5
35 -15 0 -11 -12 -15 -45 -15 l-45 0 0 75 0 75 45 0 c25 0 45 -4 45 -10z m60
-45 c0 -45 4 -56 21 -65 33 -18 49 4 49 66 0 43 3 54 16 54 14 0 16 -10 12
-61 -5 -65 -21 -89 -62 -89 -38 0 -56 29 -56 92 0 32 4 58 10 58 6 0 10 -25
10 -55z m238 43 c17 -17 15 -56 -5 -66 -16 -9 -16 -12 1 -37 26 -39 9 -45 -22
-7 -34 40 -42 40 -42 1 0 -20 -4 -29 -12 -27 -9 3 -14 30 -16 76 l-3 72 44 0
c23 0 48 -5 55 -12z m150 -60 c31 -67 35 -103 8 -65 -8 10 -26 17 -46 17 -20
0 -38 -7 -46 -17 -7 -10 -15 -15 -18 -12 -7 7 54 149 63 149 3 -1 21 -33 39
-72z m252 62 c0 -5 -13 -10 -30 -10 -25 0 -30 -4 -30 -25 0 -21 5 -25 30 -25
17 0 30 -4 30 -10 0 -5 -13 -10 -30 -10 -27 0 -30 -3 -30 -30 0 -20 -5 -30
-15 -30 -12 0 -15 15 -15 75 l0 75 45 0 c25 0 45 -4 45 -10z m70 -50 l0 -60
30 0 c20 0 30 -5 30 -16 0 -12 -9 -14 -42 -12 l-43 3 -3 73 c-2 59 0 72 13 72
12 0 15 -13 15 -60z m212 43 c26 -30 30 -60 13 -92 -27 -54 -103 -54 -130 0
-28 54 5 109 65 109 23 0 43 -7 52 -17z m90 -30 l16 -48 17 43 c10 23 21 42
25 42 4 0 13 -18 20 -40 7 -22 16 -40 20 -40 4 0 13 20 20 45 7 25 18 45 26
45 9 0 6 -20 -13 -77 l-26 -76 -24 48 -25 48 -22 -49 -22 -48 -27 72 c-31 85
-31 82 -14 82 8 0 21 -21 29 -47z m-502 -53 c0 -5 -13 -10 -30 -10 -16 0 -30
5 -30 10 0 6 14 10 30 10 17 0 30 -4 30 -10z"/>
<path d="M750 555 c0 -20 5 -25 24 -25 27 0 40 22 23 39 -21 21 -47 13 -47
-14z"/>
<path d="M912 525 c-11 -23 -10 -25 14 -25 20 0 25 4 20 16 -3 9 -6 20 -6 25
0 18 -17 8 -28 -16z"/>
<path d="M1416 564 c-24 -24 -20 -61 9 -80 23 -15 27 -15 50 0 42 28 24 96
-25 96 -10 0 -26 -7 -34 -16z"/>
</g>
</svg>
