<?xml version="1.0" encoding="UTF-8"?>
<svg version="1.1" xmlns="http://www.w3.org/2000/svg" width="395" height="392">
<path d="M0 0 C130.35 0 260.7 0 395 0 C395 129.36 395 258.72 395 392 C264.65 392 134.3 392 0 392 C0 262.64 0 133.28 0 0 Z " fill="#773895" transform="translate(0,0)"/>
<path d="M0 0 C4.29 0 8.58 0 13 0 C14.71337833 4.23407987 16.42225627 8.46993692 18.12695312 12.70751953 C18.70774363 14.14942616 19.28977 15.59083563 19.87304688 17.03173828 C20.71027311 19.10059835 21.54306709 21.17119419 22.375 23.2421875 C22.63748535 23.88807831 22.8999707 24.53396912 23.17041016 25.19943237 C25 29.77225659 25 29.77225659 25 32 C25.66 32 26.32 32 27 32 C27.11335693 31.30688721 27.22671387 30.61377441 27.34350586 29.8996582 C28.08604515 26.6199486 29.22200369 23.71445083 30.50390625 20.60546875 C31.24350586 18.80239258 31.24350586 18.80239258 31.99804688 16.96289062 C32.51943405 15.70438681 33.04091966 14.44592377 33.5625 13.1875 C34.08830158 11.90967423 34.61369647 10.63168104 35.13867188 9.35351562 C36.42178151 6.23402891 37.71036509 3.11679475 39 0 C43.29 0 47.58 0 52 0 C52 16.17 52 32.34 52 49 C48.7 49 45.4 49 42 49 C41.67 39.43 41.34 29.86 41 20 C35.555 33.86 35.555 33.86 30 48 C27.36 48 24.72 48 22 48 C16.555 34.14 16.555 34.14 11 20 C10.67 29.57 10.34 39.14 10 49 C6.7 49 3.4 49 0 49 C0 32.83 0 16.66 0 0 Z " fill="#FAF7FB" transform="translate(28,85)"/>
<path d="M0 0 C3.125 2 3.125 2 5 4 C5.33 2.68 5.66 1.36 6 0 C9.3 0 12.6 0 16 0 C16.07436251 5.58672194 16.12870254 11.17315339 16.16479492 16.76025391 C16.17984691 18.65939353 16.20029316 20.55849859 16.22631836 22.45751953 C16.26285992 25.19312081 16.27976238 27.928261 16.29296875 30.6640625 C16.30845261 31.50804596 16.32393646 32.35202942 16.33988953 33.22158813 C16.34131186 38.24557901 15.75877556 41.63105894 13 46 C8.8099029 50.04561099 3.80131104 51.12252604 -1.875 51.375 C-7.98976451 51.24587978 -12.73051288 49.34040859 -17 44.9375 C-18 43 -18 43 -18 40 C-16.37536158 39.94604522 -14.75021459 39.90722805 -13.125 39.875 C-12.22007812 39.85179687 -11.31515625 39.82859375 -10.3828125 39.8046875 C-8 40 -8 40 -6 42 C-3.8601368 42.318384 -3.8601368 42.318384 -1.5 42.25 C-0.7059375 42.25515625 0.088125 42.2603125 0.90625 42.265625 C3.21892751 42.18939909 3.21892751 42.18939909 5 40 C5.24212873 38.01871492 5.24212873 38.01871492 5.125 35.875 C5.08375 34.59625 5.0425 33.3175 5 32 C4.566875 32.474375 4.13375 32.94875 3.6875 33.4375 C0.59809856 36.29805689 -2.86010547 36.33762272 -6.9375 36.28515625 C-11.2295991 35.69174103 -14.04427497 33.08754917 -16.8125 29.9375 C-19.26314058 25.93908642 -19.22614299 22.28260182 -19.3125 17.6875 C-19.34988281 16.39199219 -19.38726562 15.09648438 -19.42578125 13.76171875 C-18.82187705 8.42630822 -16.37192211 5.53332471 -12.875 1.625 C-8.64496727 -0.76588806 -4.75063302 -0.80994399 0 0 Z " fill="#FAF7FB" transform="translate(147,97)"/>
<path d="M0 0 C0.99 0 1.98 0 3 0 C3 129.36 3 258.72 3 392 C2.01 392 1.02 392 0 392 C0 262.64 0 133.28 0 0 Z " fill="#FEFEFE" transform="translate(0,0)"/>
<path d="M0 0 C3.3 0 6.6 0 10 0 C10 6.6 10 13.2 10 20 C16.93 20 23.86 20 31 20 C31 13.4 31 6.8 31 0 C34.3 0 37.6 0 41 0 C41 15.84 41 31.68 41 48 C37.7 48 34.4 48 31 48 C31 41.4 31 34.8 31 28 C24.07 28 17.14 28 10 28 C10 34.93 10 41.86 10 49 C6.7 49 3.4 49 0 49 C0 32.83 0 16.66 0 0 Z " fill="#FBFAFC" transform="translate(28,155)"/>
<path d="M0 0 C4.07840588 1.47898235 6.78341863 4.32079794 9 8 C9.34057617 11.11621094 9.34057617 11.11621094 9.29296875 14.734375 C9.2784668 16.67763672 9.2784668 16.67763672 9.26367188 18.66015625 C9.23860783 20.02344354 9.21321302 21.38672479 9.1875 22.75 C9.17244518 24.12889184 9.15875817 25.50779935 9.14648438 26.88671875 C9.11111909 30.25820915 9.06175904 33.62890654 9 37 C5.7 37 2.4 37 -1 37 C-1.33 36.01 -1.66 35.02 -2 34 C-2.54914063 34.4846875 -3.09828125 34.969375 -3.6640625 35.46875 C-7.7962717 38.17748914 -12.24327447 37.70800972 -17 37 C-20.1313851 35.74380481 -20.81165526 34.82181296 -23 32 C-24.10090203 28.89693934 -24.4430245 26.26802488 -24 23 C-22.37692861 19.65463015 -20.00323872 17.60194323 -16.8125 15.6875 C-13.29183069 14.82689195 -9.81767991 14.5113438 -6.20703125 14.24609375 C-3.96066119 14.12422259 -3.96066119 14.12422259 -2 13 C-2 11.35 -2 9.7 -2 8 C-3.8871875 7.9071875 -3.8871875 7.9071875 -5.8125 7.8125 C-6.52019531 7.77769531 -7.22789062 7.74289063 -7.95703125 7.70703125 C-10.10569125 7.80389143 -10.10569125 7.80389143 -11.46875 9.5 C-13 11 -13 11 -15.26171875 11.29296875 C-16.06222656 11.25816406 -16.86273438 11.22335938 -17.6875 11.1875 C-18.89986328 11.14689453 -18.89986328 11.14689453 -20.13671875 11.10546875 C-20.75160156 11.07066406 -21.36648437 11.03585938 -22 11 C-21.89367594 7.38498206 -20.73572888 5.25076472 -18.3125 2.6875 C-12.99782967 -1.57967307 -6.43445006 -0.91038982 0 0 Z " fill="#F8F5FA" transform="translate(193,97)"/>
<path d="M0 0 C3.49080556 1.53832109 5.98324848 3.30263246 8.13671875 6.4765625 C9.63671875 10.3515625 9.63671875 10.3515625 9.63671875 20.3515625 C1.71671875 20.3515625 -6.20328125 20.3515625 -14.36328125 20.3515625 C-13.37328125 22.6615625 -12.38328125 24.9715625 -11.36328125 27.3515625 C-7.96358314 28.6824941 -7.96358314 28.6824941 -4.36328125 28.3515625 C-3.73808594 27.85785156 -3.11289063 27.36414063 -2.46875 26.85546875 C0.17607723 24.96630645 1.67833741 25.03741587 4.88671875 25.1640625 C5.77875 25.19113281 6.67078125 25.21820313 7.58984375 25.24609375 C8.2653125 25.28089844 8.94078125 25.31570312 9.63671875 25.3515625 C8.87403714 29.45097617 7.63894585 31.79111038 4.32421875 34.2265625 C-1.24516563 37.37270468 -7.16011802 37.22501964 -13.36328125 36.3515625 C-18.39687758 33.9672274 -21.86324912 30.35162677 -24.36328125 25.3515625 C-24.53931272 22.93906558 -24.63073093 20.52005355 -24.67578125 18.1015625 C-24.71316406 16.79703125 -24.75054687 15.4925 -24.7890625 14.1484375 C-24.17005236 8.62845713 -21.83429388 5.64745458 -17.73828125 2.0390625 C-12.44133693 -1.72455583 -6.21609883 -1.70557423 0 0 Z " fill="#FAF9FB" transform="translate(112.36328125,97.6484375)"/>
<path d="M0 0 C3.86822962 1.39532568 5.71633148 3.57449722 8 7 C8 8.32 8 9.64 8 11 C6.56344146 11.08131463 5.1255517 11.13933559 3.6875 11.1875 C2.88699219 11.22230469 2.08648437 11.25710937 1.26171875 11.29296875 C-1.5367327 10.93047504 -2.07863263 9.96224753 -4 8 C-6.05363606 7.6393369 -6.05363606 7.6393369 -8.1875 7.8125 C-9.445625 7.874375 -10.70375 7.93625 -12 8 C-12 9.65 -12 11.3 -12 13 C-10.81921875 13.24234375 -9.6384375 13.4846875 -8.421875 13.734375 C-6.86441417 14.07213759 -5.30713153 14.41072256 -3.75 14.75 C-2.97269531 14.90726563 -2.19539063 15.06453125 -1.39453125 15.2265625 C3.11339621 16.22832416 6.20290165 17.05029156 9 21 C9.55601654 24.83033618 9.88245877 27.35081477 8.046875 30.78125 C5.43396734 34.15487762 2.99386797 35.74118775 -1 37 C-12.88955999 38.27972736 -12.88955999 38.27972736 -17.625 35.25 C-19.74466235 33.24189882 -21.53465623 31.5236476 -23 29 C-23 28.01 -23 27.02 -23 26 C-21.39667209 25.91878076 -19.79215974 25.86070866 -18.1875 25.8125 C-16.84751953 25.76029297 -16.84751953 25.76029297 -15.48046875 25.70703125 C-12.51733119 26.05700813 -11.94712992 26.85815708 -10 29 C-6.90498792 29.25265405 -4.79870027 29.39935013 -2 28 C-2.33 26.68 -2.66 25.36 -3 24 C-3.88042969 23.82984375 -4.76085937 23.6596875 -5.66796875 23.484375 C-6.82941406 23.24203125 -7.99085938 22.9996875 -9.1875 22.75 C-10.33605469 22.51796875 -11.48460937 22.2859375 -12.66796875 22.046875 C-16.25127647 20.92105265 -18.28419067 19.56189692 -21 17 C-22.74475059 13.51049882 -22.71470405 9.79645547 -22 6 C-16.44574402 -1.29743786 -8.34505609 -0.70174335 0 0 Z " fill="#FAF8FB" transform="translate(143,167)"/>
<path d="M0 0 C4.73829769 1.66717882 7.2011938 3.85362045 10 8 C11.63764716 12.91294148 11.85174 17.91796889 9.875 22.75 C4.11360042 29.66367949 4.11360042 29.66367949 -0.84765625 30.453125 C-5.69934539 30.62146118 -9.13973765 30.40749269 -13.5625 28.3125 C-17.72767363 24.36092502 -19.45896189 20.94600355 -19.625 15.1875 C-19.50920433 9.32534441 -17.8212391 6.49518207 -13.7265625 2.42578125 C-9.62702613 -0.9595825 -5.09192166 -0.43085491 0 0 Z " fill="#D5C3DD" transform="translate(43,18)"/>
<path d="M0 0 C3.3 0 6.6 0 10 0 C10 2.97 10 5.94 10 9 C12.31 9 14.62 9 17 9 C17 11.64 17 14.28 17 17 C14.69 17 12.38 17 10 17 C10.33 23.6 10.66 30.2 11 37 C12.65 37.33 14.3 37.66 16 38 C16.38063221 40.3260857 16.71269945 42.66055264 17 45 C15.35962605 46.64037395 13.50523159 46.24911331 11.25 46.3125 C7.51709524 46.28579825 6.2118116 46.12968057 2.9375 44.125 C-0.02933682 40.87104993 -0.12135592 39.08677818 -0.09765625 34.7734375 C-0.09443359 33.7421875 -0.09121094 32.7109375 -0.08789062 31.6484375 C-0.07951172 30.56820312 -0.07113281 29.48796875 -0.0625 28.375 C-0.05798828 27.28703125 -0.05347656 26.1990625 -0.04882812 25.078125 C-0.03701776 22.38536211 -0.02054778 19.69270812 0 17 C-1.65 17 -3.3 17 -5 17 C-5 14.36 -5 11.72 -5 9 C-3.35 9 -1.7 9 0 9 C0 6.03 0 3.06 0 0 Z " fill="#F8F6FA" transform="translate(98,158)"/>
<path d="M0 0 C3.3 0 6.6 0 10 0 C10 11.88 10 23.76 10 36 C6.7 36 3.4 36 0 36 C0 24.12 0 12.24 0 0 Z " fill="#FBFAFC" transform="translate(77,167)"/>
<path d="M0 0 C1.65 0 3.3 0 5 0 C7 4 9 8 11 12 C12.65 8.04 14.3 4.08 16 0 C17.98 0 19.96 0 22 0 C22 6.6 22 13.2 22 20 C20.68 20 19.36 20 18 20 C17.67 16.37 17.34 12.74 17 9 C15.68 12.63 14.36 16.26 13 20 C11.68 20 10.36 20 9 20 C7.68 16.7 6.36 13.4 5 10 C4.67 13.3 4.34 16.6 4 20 C2.68 20 1.36 20 0 20 C0 13.4 0 6.8 0 0 Z " fill="#F7F3F8" transform="translate(219,348)"/>
<path d="M0 0 C1.65 0 3.3 0 5 0 C5.20496094 0.71027344 5.40992187 1.42054688 5.62109375 2.15234375 C5.89050781 3.07144531 6.15992187 3.99054688 6.4375 4.9375 C6.83775391 6.31228516 6.83775391 6.31228516 7.24609375 7.71484375 C7.79026051 9.9402493 7.79026051 9.9402493 9 11 C9.99 7.37 10.98 3.74 12 0 C13.65 0.33 15.3 0.66 17 1 C17.66 4.96 18.32 8.92 19 13 C19.66 13 20.32 13 21 13 C21.06058594 12.31292969 21.12117188 11.62585938 21.18359375 10.91796875 C21.26738281 10.01691406 21.35117188 9.11585938 21.4375 8.1875 C21.51871094 7.29417969 21.59992188 6.40085937 21.68359375 5.48046875 C22 3 22 3 23 0 C24.65 0 26.3 0 28 0 C27.38251126 2.77270429 26.75637544 5.54295598 26.125 8.3125 C25.86396484 9.49102539 25.86396484 9.49102539 25.59765625 10.69335938 C25.33662109 11.8293457 25.33662109 11.8293457 25.0703125 12.98828125 C24.91320801 13.68477783 24.75610352 14.38127441 24.59423828 15.09887695 C24 17 24 17 22 20 C20.68 20 19.36 20 18 20 C17.49440092 18.56445975 16.9957251 17.1264798 16.5 15.6875 C16.2215625 14.88699219 15.943125 14.08648437 15.65625 13.26171875 C15 11 15 11 15 8 C14.34 8 13.68 8 13 8 C12.87625 9.051875 12.7525 10.10375 12.625 11.1875 C12.08859218 14.45958771 11.36119965 17.00536076 10 20 C8.68 20 7.36 20 6 20 C3.4533129 13.38603107 1.36874156 6.95776959 0 0 Z " fill="#F4F0F7" transform="translate(108,348)"/>
<path d="M0 0 C2.875 1.5 2.875 1.5 5 3 C5 2.01 5 1.02 5 0 C6.98 0 8.96 0 11 0 C11 5.28 11 10.56 11 16 C9.02 16 7.04 16 5 16 C4.67 15.01 4.34 14.02 4 13 C3.46375 13.495 2.9275 13.99 2.375 14.5 C-0.65118137 16.41127245 -2.47704517 16.37478243 -6 16 C-6.99 15.34 -7.98 14.68 -9 14 C-9 13.01 -9 12.02 -9 11 C-6.23723823 11.52268466 -3.6739124 12.10869587 -1 13 C-1 12.01 -1 11.02 -1 10 C-2.134375 9.690625 -3.26875 9.38125 -4.4375 9.0625 C-8 8 -8 8 -9 7 C-9.25 4.5625 -9.25 4.5625 -9 2 C-5.4913604 -0.33909307 -4.12910567 -0.41291057 0 0 Z " fill="#F3EEF6" transform="translate(271,353)"/>
<path d="M0 0 C3.5 0.625 3.5 0.625 5.9375 2.5625 C8.04210199 6.6875199 8.20852688 10.07724608 7.5 14.625 C6.3410416 17.04369578 5.37677904 18.74822096 3.5 20.625 C-2.83014354 21.09389952 -2.83014354 21.09389952 -5.375 19.3125 C-8.14767794 15.15348309 -8.08926036 10.43168097 -7.5 5.625 C-5.44677803 1.60068494 -4.46392703 0.79712983 0 0 Z " fill="#783996" transform="translate(145.5,104.375)"/>
<path d="M0 0 C3.07437876 0.73760297 4.83284447 2.16287677 6.9375 4.46484375 C6.9375 5.45484375 6.9375 6.44484375 6.9375 7.46484375 C2.0625 6.58984375 2.0625 6.58984375 0.9375 5.46484375 C-1.52059998 5.21476645 -1.52059998 5.21476645 -4.0625 5.46484375 C-6.36996414 7.34257639 -6.36996414 7.34257639 -6.3125 10.40234375 C-6.29767754 13.63767162 -6.29767754 13.63767162 -4.0625 16.46484375 C-1.5625 16.88151042 -1.5625 16.88151042 0.9375 16.46484375 C1.5975 15.80484375 2.2575 15.14484375 2.9375 14.46484375 C4.2575 14.46484375 5.5775 14.46484375 6.9375 14.46484375 C5.48922414 19.05105065 5.48922414 19.05105065 3.1875 20.77734375 C0.20763098 21.68785928 -1.95742688 21.84505678 -5.0625 21.46484375 C-7.76240662 19.66490601 -9.6043865 18.38107075 -11.0625 15.46484375 C-11.70328211 10.88782865 -11.81819675 6.77696435 -9.0625 2.90234375 C-5.70182923 0.17179875 -4.19764828 -0.32595375 0 0 Z " fill="#F4EFF6" transform="translate(319.0625,347.53515625)"/>
<path d="M0 0 C2.1796875 1.09765625 2.1796875 1.09765625 4 3 C4.390625 6.13671875 4.390625 6.13671875 4.25 9.6875 C4.21390625 10.86699219 4.1778125 12.04648437 4.140625 13.26171875 C4.07101562 14.61716797 4.07101562 14.61716797 4 16 C2.22992286 16.08114106 0.45877902 16.13925505 -1.3125 16.1875 C-2.29863281 16.22230469 -3.28476562 16.25710938 -4.30078125 16.29296875 C-7 16 -7 16 -8.875 14.65625 C-10 13 -10 13 -9.6875 10.3125 C-9.460625 9.549375 -9.23375 8.78625 -9 8 C-7.865625 7.731875 -6.73125 7.46375 -5.5625 7.1875 C-4.386875 6.795625 -3.21125 6.40375 -2 6 C-1.67 5.01 -1.34 4.02 -1 3 C-2.32 3 -3.64 3 -5 3 C-5 3.66 -5 4.32 -5 5 C-6.32 5 -7.64 5 -9 5 C-8.625 3.0625 -8.625 3.0625 -8 1 C-5.19084526 -0.40457737 -3.11189466 -0.24895157 0 0 Z " fill="#EDE5F1" transform="translate(356,353)"/>
<path d="M0 0 C1.65 0 3.3 0 5 0 C5.33 3.63 5.66 7.26 6 11 C6.99 11 7.98 11 9 11 C9.33 7.37 9.66 3.74 10 0 C11.65 0 13.3 0 15 0 C15 5.28 15 10.56 15 16 C4.70694087 16.49014567 4.70694087 16.49014567 1.65625 14.375 C-0.48467716 11.30499125 -0.41110849 9.45549517 -0.25 5.75 C-0.21390625 4.67234375 -0.1778125 3.5946875 -0.140625 2.484375 C-0.09421875 1.66453125 -0.0478125 0.8446875 0 0 Z " fill="#DDCDE4" transform="translate(244,353)"/>
<path d="M0 0 C1.32 0 2.64 0 4 0 C4 2.31 4 4.62 4 7 C4.99 6.34 5.98 5.68 7 5 C9.5625 4.75 9.5625 4.75 12 5 C14 7 14 7 14.1953125 10.0390625 C14.17210937 11.22242188 14.14890625 12.40578125 14.125 13.625 C14.10695313 14.81351562 14.08890625 16.00203125 14.0703125 17.2265625 C14.04710937 18.14179688 14.02390625 19.05703125 14 20 C12.68 20 11.36 20 10 20 C10 16.37 10 12.74 10 9 C8.35 9 6.7 9 5 9 C5 12.96 5 16.92 5 21 C3.35 21 1.7 21 0 21 C0 14.07 0 7.14 0 0 Z " fill="#EAE0EE" transform="translate(329,348)"/>
<path d="M0 0 C2.375 1.6875 2.375 1.6875 4 4 C4 5.65 4 7.3 4 9 C0.7 9 -2.6 9 -6 9 C-5.67 9.66 -5.34 10.32 -5 11 C-2.03 11 0.94 11 4 11 C2 15 2 15 0 16 C-3.46500939 16.37663145 -5.36348003 16.38526209 -8.375 14.5625 C-10.7638671 10.79544034 -10.80596676 7.34235152 -10 3 C-7.26135833 -0.47596827 -4.2407782 -0.61844682 0 0 Z " fill="#E6DBEC" transform="translate(165,353)"/>
<path d="M0 0 C0.66 0.66 1.32 1.32 2 2 C5.59679066 1.67673447 5.59679066 1.67673447 9 1 C9.28571429 9.57142857 9.28571429 9.57142857 7 13 C6.34 12.67 5.68 12.34 5 12 C5.33 11.34 5.66 10.68 6 10 C2.75016865 11.08784968 2.75016865 11.08784968 0 13 C-2.375 13.3125 -2.375 13.3125 -5 13 C-7.5348994 10.72733157 -7.96041822 9.32325124 -8.375 5.9375 C-8 3 -8 3 -6.8125 1.125 C-4.38241919 -0.38332602 -2.80984248 -0.36023622 0 0 Z " fill="#7D4099" transform="translate(320,352)"/>
<path d="M0 0 C2.375 1.6875 2.375 1.6875 4 4 C4 5.65 4 7.3 4 9 C0.7 9 -2.6 9 -6 9 C-5.67 9.66 -5.34 10.32 -5 11 C-2.03 11 0.94 11 4 11 C2 15 2 15 0 16 C-3.50337981 16.38080215 -5.36278626 16.40245078 -8.375 14.5 C-10.65416433 10.99359333 -10.81753559 8.07099353 -10 4 C-7.31163109 -0.13595217 -4.79825109 -0.79970851 0 0 Z " fill="#E8DDED" transform="translate(148,353)"/>
<path d="M0 0 C1.32 0 2.64 0 4 0 C4.33 3.3 4.66 6.6 5 10 C5.556875 9.175 6.11375 8.35 6.6875 7.5 C9 5 9 5 11.75 4.6875 C12.4925 4.790625 13.235 4.89375 14 5 C13.319375 5.721875 12.63875 6.44375 11.9375 7.1875 C9.74376225 9.7827687 9.74376225 9.7827687 10.0625 12.5625 C11.04471275 15.11625316 12.3089877 16.86785406 14 19 C14 19.66 14 20.32 14 21 C11.6875 21.3125 11.6875 21.3125 9 21 C7.3125 18.5625 7.3125 18.5625 6 16 C5.34 15.67 4.68 15.34 4 15 C4 16.65 4 18.3 4 20 C2.68 20 1.36 20 0 20 C0 13.4 0 6.8 0 0 Z " fill="#F6F2F8" transform="translate(172,348)"/>
<path d="M0 0 C1.32 0 2.64 0 4 0 C4.99 2.64 5.98 5.28 7 8 C7.99 5.36 8.98 2.72 10 0 C11.65 0 13.3 0 15 0 C11.09339679 15.8335812 11.09339679 15.8335812 8 20 C4.25 21.0625 4.25 21.0625 1 21 C1 20.01 1 19.02 1 18 C1.99 17.67 2.98 17.34 4 17 C3.00267443 12.13008048 1.89731633 7.60776823 0 3 C0 2.01 0 1.02 0 0 Z " fill="#F2ECF5" transform="translate(195,353)"/>
<path d="M0 0 C1.98 0 3.96 0 6 0 C6 5.28 6 10.56 6 16 C4.02 16 2.04 16 0 16 C-0.165 14.906875 -0.33 13.81375 -0.5 12.6875 C-1.56869679 8.99455496 -1.56869679 8.99455496 -3.9140625 7.8671875 C-5.92903553 7.13382276 -7.9175375 6.50850828 -10 6 C-10 5.01 -10 4.02 -10 3 C-6.97580475 3.58803797 -3.98241547 4.22678118 -1 5 C-0.67 3.35 -0.34 1.7 0 0 Z " fill="#8850A2" transform="translate(276,353)"/>
<path d="M0 0 C2.375 1.3125 2.375 1.3125 4 3 C4 3.99 4 4.98 4 6 C2.68 6 1.36 6 0 6 C-0.33 5.34 -0.66 4.68 -1 4 C-2.32 4.33 -3.64 4.66 -5 5 C-5 6.98 -5 8.96 -5 11 C-0.545 10.505 -0.545 10.505 4 10 C2.25 14.875 2.25 14.875 0 16 C-3.50337981 16.38080215 -5.36278626 16.40245078 -8.375 14.5 C-10.65416433 10.99359333 -10.81753559 8.07099353 -10 4 C-7.29356525 -0.16374577 -4.81729865 -0.70252272 0 0 Z " fill="#F3EDF5" transform="translate(295,353)"/>
<path d="M0 0 C1.32 0 2.64 0 4 0 C4 0.99 4 1.98 4 3 C4.99 3 5.98 3 7 3 C7 3.99 7 4.98 7 6 C6.01 6 5.02 6 4 6 C4 8.97 4 11.94 4 15 C4.99 15 5.98 15 7 15 C7 16.32 7 17.64 7 19 C4.625 19.125 4.625 19.125 2 19 C0 17 0 17 -0.1953125 14.3984375 C-0.17210937 13.40070313 -0.14890625 12.40296875 -0.125 11.375 C-0.10695313 10.37210937 -0.08890625 9.36921875 -0.0703125 8.3359375 C-0.04710937 7.56507813 -0.02390625 6.79421875 0 6 C-0.66 6 -1.32 6 -2 6 C-2 5.01 -2 4.02 -2 3 C-1.34 3 -0.68 3 0 3 C0 2.01 0 1.02 0 0 Z " fill="#F7F3F8" transform="translate(376,350)"/>
<path d="M0 0 C0.31785906 3.49644963 0.39644605 5.397402 -1.5625 8.375 C-4.86769698 10.57846465 -7.10798594 10.43244601 -11 10 C-11.66 9.34 -12.32 8.68 -13 8 C-12.8125 5.5 -12.8125 5.5 -12 3 C-8.17936061 0.45290708 -4.56711438 0 0 0 Z " fill="#7C3E99" transform="translate(192,117)"/>
<path d="M0 0 C2.875 2.3125 2.875 2.3125 5 5 C5 5.99 5 6.98 5 8 C0.05 8 -4.9 8 -10 8 C-9 3 -9 3 -7.8125 1.1875 C-5.02372887 -0.63962591 -3.26191611 -0.52190658 0 0 Z " fill="#83499E" transform="translate(108,104)"/>
<path d="M0 0 C0.70125 0.07863281 1.4025 0.15726563 2.125 0.23828125 C4 0.6875 4 0.6875 6 2.6875 C5.75 4.75 5.75 4.75 5 6.6875 C2.22899606 8.07300197 0.0665294 7.8752467 -3 7.6875 C-3.99 7.0275 -4.98 6.3675 -6 5.6875 C-6 5.0275 -6 4.3675 -6 3.6875 C-9.3 3.6875 -12.6 3.6875 -16 3.6875 C-16 3.3575 -16 3.0275 -16 2.6875 C-12.7 2.6875 -9.4 2.6875 -6 2.6875 C-6 2.0275 -6 1.3675 -6 0.6875 C-3.63106495 -0.49696753 -2.5933174 -0.31939755 0 0 Z " fill="#81469D" transform="translate(136,189.3125)"/>
<path d="M0 0 C2.9375 0.8125 2.9375 0.8125 4.9375 2.8125 C4.60778521 6.10964793 4.3148161 7.4351839 1.9375 9.8125 C-1.0625 10.0625 -1.0625 10.0625 -4.0625 9.8125 C-6.0625 7.8125 -6.0625 7.8125 -6.375 5.375 C-6.0625 2.8125 -6.0625 2.8125 -4.9375 0.9375 C-3.0625 -0.1875 -3.0625 -0.1875 0 0 Z " fill="#F6F2F8" transform="translate(83.0625,152.1875)"/>
<path d="M0 0 C2.875 0.5 2.875 0.5 4.8125 1.75 C5.875 3.5 5.875 3.5 5.6875 5.625 C4.875 7.5 4.875 7.5 2.875 8.5 C-4.50060976 8.96829268 -4.50060976 8.96829268 -7.125 7 C-7.455 6.505 -7.785 6.01 -8.125 5.5 C-3.99305556 0.63888889 -3.99305556 0.63888889 0 0 Z " fill="#7E429A" transform="translate(186.125,103.5)"/>
<path d="M0 0 C1.32 0 2.64 0 4 0 C4 6.6 4 13.2 4 20 C2.68 20 1.36 20 0 20 C0 13.4 0 6.8 0 0 Z " fill="#F9F7FB" transform="translate(188,348)"/>
<path d="M0 0 C2.475 0.495 2.475 0.495 5 1 C7.23167185 0.63143136 7.23167185 0.63143136 9 0 C9 1.32 9 2.64 9 4 C7.68 4.33 6.36 4.66 5 5 C4.67 8.3 4.34 11.6 4 15 C2.68 15 1.36 15 0 15 C0 10.05 0 5.1 0 0 Z " fill="#FDFCFD" transform="translate(363,353)"/>
<path d="M0 0 C2.4375 0.3125 2.4375 0.3125 4.4375 2.3125 C4.6328125 5.3515625 4.6328125 5.3515625 4.5625 8.9375 C4.54445313 10.12601562 4.52640625 11.31453125 4.5078125 12.5390625 C4.48460937 13.45429688 4.46140625 14.36953125 4.4375 15.3125 C3.1175 15.3125 1.7975 15.3125 0.4375 15.3125 C0.4375 11.6825 0.4375 8.0525 0.4375 4.3125 C-2.5325 3.8175 -2.5325 3.8175 -5.5625 3.3125 C-3.75137927 1.02476855 -2.95529457 0.36040178 0 0 Z " fill="#F3EEF6" transform="translate(338.5625,352.6875)"/>
<path d="M0 0 C1.21171875 -0.02578125 2.4234375 -0.0515625 3.671875 -0.078125 C7.5248711 0.27520652 9.93175572 1.31605395 13.25 3.25 C13.25 3.91 13.25 4.57 13.25 5.25 C5.99 4.59 -1.27 3.93 -8.75 3.25 C-8.75 2.59 -8.75 1.93 -8.75 1.25 C-5.83999203 -0.20500399 -3.2410667 0.04102616 0 0 Z " fill="#793B97" transform="translate(36.75,25.75)"/>
<path d="M0 0 C1.32 0 2.64 0 4 0 C4 4.95 4 9.9 4 15 C2.68 15 1.36 15 0 15 C0 10.05 0 5.1 0 0 Z " fill="#F8F5FA" transform="translate(278,353)"/>
<path d="M0 0 C3.0625 0.125 3.0625 0.125 5.0625 1.125 C4.7325 2.115 4.4025 3.105 4.0625 4.125 C4.0625 3.465 4.0625 2.805 4.0625 2.125 C2.7425 2.455 1.4225 2.785 0.0625 3.125 C0.0625 3.785 0.0625 4.445 0.0625 5.125 C1.7125 5.455 3.3625 5.785 5.0625 6.125 C5.0625 6.785 5.0625 7.445 5.0625 8.125 C-1.34944487 9.45578101 -1.34944487 9.45578101 -3.9375 8 C-4.9375 6.125 -4.9375 6.125 -4.6875 3.5 C-3.63103008 0.15451192 -3.63103008 0.15451192 0 0 Z " fill="#EEE7F2" transform="translate(350.9375,359.875)"/>
<path d="M0 0 C1.62745563 0.70556359 3.21251571 1.50761689 4.78515625 2.328125 C4.78515625 2.988125 4.78515625 3.648125 4.78515625 4.328125 C4.11097656 4.17472656 3.43679687 4.02132812 2.7421875 3.86328125 C-0.68362327 3.24328643 -4.05377822 2.9928676 -7.52734375 2.765625 C-8.78160156 2.68183594 -10.03585938 2.59804688 -11.328125 2.51171875 C-12.75705078 2.42083984 -12.75705078 2.42083984 -14.21484375 2.328125 C-14.21484375 1.668125 -14.21484375 1.008125 -14.21484375 0.328125 C-10.05857825 -1.75000775 -4.37237848 -1.32636525 0 0 Z " fill="#854DA0" transform="translate(43.21484375,31.671875)"/>
<path d="M0 0 C0.99 0 1.98 0 3 0 C3 4.62 3 9.24 3 14 C1.35 13.67 -0.3 13.34 -2 13 C-1.34 8.71 -0.68 4.42 0 0 Z " fill="#FBFAFC" transform="translate(255,354)"/>
<path d="M0 0 C0.2784375 0.8971875 0.2784375 0.8971875 0.5625 1.8125 C2.72273753 5.09981799 5.35107655 5.64854687 9 7 C9 7.99 9 8.98 9 10 C6.33333333 9.33333333 3.66666667 8.66666667 1 8 C0.67 8.66 0.34 9.32 0 10 C-1.125 3.375 -1.125 3.375 0 0 Z " fill="#854BA0" transform="translate(261,356)"/>
<path d="M0 0 C0.33 0 0.66 0 1 0 C1 6.6 1 13.2 1 20 C0.67 20 0.34 20 0 20 C-0.33 16.37 -0.66 12.74 -1 9 C-2.65 10.32 -4.3 11.64 -6 13 C-5.59311 10.15176997 -5.10927742 9.1058625 -3 7.0625 C-0.70080717 4.69145739 -0.35863113 3.22768018 0 0 Z " fill="#7D409A" transform="translate(187,348)"/>
<path d="M0 0 C10.55808656 -0.55353075 10.55808656 -0.55353075 15 3 C12 4 12 4 9 3 C7.27204648 2.93197033 5.54164635 2.91504355 3.8125 2.9375 C2.91144531 2.94652344 2.01039062 2.95554688 1.08203125 2.96484375 C0.05142578 2.98224609 0.05142578 2.98224609 -1 3 C-0.67 2.01 -0.34 1.02 0 0 Z " fill="#874EA1" transform="translate(31,36)"/>
<path d="M0 0 C0.33 0 0.66 0 1 0 C1 2.31 1 4.62 1 7 C-2.3 7 -5.6 7 -9 7 C-9.33 6.01 -9.66 5.02 -10 4 C-6.7 4 -3.4 4 0 4 C0 2.68 0 1.36 0 0 Z " fill="#7F429B" transform="translate(152,358)"/>
<path d="M0 0 C1.32 0 2.64 0 4 0 C3.67 1.32 3.34 2.64 3 4 C0.36 4.66 -2.28 5.32 -5 6 C-5.33 4.68 -5.66 3.36 -6 2 C-4.02 2 -2.04 2 0 2 C0 1.34 0 0.68 0 0 Z " fill="#864CA0" transform="translate(351,356)"/>
<path d="M0 0 C2.12472576 -0.05386629 4.24983652 -0.09273071 6.375 -0.125 C7.55835938 -0.14820313 8.74171875 -0.17140625 9.9609375 -0.1953125 C13 0 13 0 15 2 C15 2.66 15 3.32 15 4 C10.05 3.01 5.1 2.02 0 1 C0 0.67 0 0.34 0 0 Z " fill="#D0BCD9" transform="translate(30,34)"/>
<path d="M0 0 C1.28132813 0.00902344 2.56265625 0.01804687 3.8828125 0.02734375 C4.87023438 0.03894531 5.85765625 0.05054687 6.875 0.0625 C6.875 0.3925 6.875 0.7225 6.875 1.0625 C5.225 1.3925 3.575 1.7225 1.875 2.0625 C1.875 2.3925 1.875 2.7225 1.875 3.0625 C-1.755 3.0625 -5.385 3.0625 -9.125 3.0625 C-9.125 2.4025 -9.125 1.7425 -9.125 1.0625 C-6.12186252 -0.43906874 -3.33432478 -0.03031204 0 0 Z " fill="#854CA0" transform="translate(37.125,25.9375)"/>
<path d="M0 0 C3.36704285 -0.2295711 5.41370268 -0.33943529 8.375 1.375 C8.91125 1.91125 9.4475 2.4475 10 3 C10 3.66 10 4.32 10 5 C5.59885603 4.49701212 3.28804981 2.91227269 0 0 Z " fill="#E9DEED" transform="translate(265,353)"/>
<path d="M0 0 C0.7425 0.185625 1.485 0.37125 2.25 0.5625 C4.94990963 0.99203108 6.44631077 0.85122974 9 0 C9 1.32 9 2.64 9 4 C7.35 4.33 5.7 4.66 4 5 C3.896875 4.360625 3.79375 3.72125 3.6875 3.0625 C3.460625 2.381875 3.23375 1.70125 3 1 C2.01 0.67 1.02 0.34 0 0 Z " fill="#EEE6F2" transform="translate(363,353)"/>
<path d="M0 0 C2.35953094 2.35953094 2.49141413 3.77895617 3 7 C2.34 7 1.68 7 1 7 C1 8.65 1 10.3 1 12 C0.67 12 0.34 12 0 12 C0 8.04 0 4.08 0 0 Z " fill="#844A9F" transform="translate(223,356)"/>
<path d="M0 0 C1.32 0 2.64 0 4 0 C3.67 1.32 3.34 2.64 3 4 C1.68 3.67 0.36 3.34 -1 3 C-0.67 2.01 -0.34 1.02 0 0 Z " fill="#82479D" transform="translate(351,362)"/>
</svg>
