<?xml version="1.0" standalone="no"?>
<!DOCTYPE svg PUBLIC "-//W3C//DTD SVG 20010904//EN"
 "http://www.w3.org/TR/2001/REC-SVG-20010904/DTD/svg10.dtd">
<svg version="1.0" xmlns="http://www.w3.org/2000/svg"
 width="200.000000pt" height="200.000000pt" viewBox="0 0 200.000000 200.000000"
 preserveAspectRatio="xMidYMid meet">

<g transform="translate(0.000000,200.000000) scale(0.100000,-0.100000)"
fill="#000000" stroke="none">
<path d="M880 1303 c-112 -33 -269 -106 -285 -133 -3 -6 10 1 30 14 32 22 234
106 254 106 5 0 6 -10 4 -22 -2 -13 3 -63 11 -113 8 -49 14 -75 15 -56 1 19
-4 63 -10 99 -15 83 -3 99 42 56 18 -16 29 -24 25 -17 -3 7 1 13 11 16 12 3
11 4 -3 2 -12 -1 -26 6 -32 16 -15 23 -43 38 -62 32z"/>
<path d="M1073 1246 c-72 -34 -67 -39 8 -9 52 21 71 24 118 18 81 -10 103 -36
103 -117 1 -35 -8 -90 -18 -123 -10 -33 -19 -64 -19 -70 0 -5 -9 -29 -20 -52
-19 -41 -37 -53 -50 -33 -3 6 -11 10 -18 10 -14 0 24 -29 39 -30 13 0 66 98
59 110 -3 5 -1 11 5 15 5 3 10 16 10 28 l0 21 21 -21 c27 -26 52 -128 36 -141
-29 -23 -80 -42 -148 -56 -71 -15 -72 -16 -18 -11 73 6 135 29 182 66 l37 30
40 -32 c45 -36 54 -57 45 -99 -9 -40 -30 -56 -50 -37 -32 33 -70 31 -126 -8
-29 -20 -75 -45 -101 -57 -27 -11 -47 -23 -44 -25 8 -8 97 36 148 73 50 36 72
38 108 14 13 -9 13 -11 0 -20 -12 -8 -11 -10 8 -10 44 0 81 62 68 115 -4 14
-23 39 -43 57 -56 51 -83 80 -110 121 -14 20 -30 37 -35 37 -6 0 -7 10 -3 23
12 40 14 150 3 170 -24 46 -43 56 -114 62 -60 5 -76 3 -121 -19z m317 -357 c0
-4 -7 -9 -15 -13 -11 -4 -15 2 -15 27 1 30 1 31 15 13 8 -11 15 -23 15 -27z"/>
<path d="M820 1146 c0 -3 16 -26 35 -52 19 -25 35 -56 35 -69 0 -13 4 -27 10
-30 5 -3 8 0 6 7 -3 7 -7 25 -10 39 -5 23 -76 121 -76 105z"/>
<path d="M776 1106 c41 -18 73 -60 80 -107 4 -21 14 -44 23 -51 13 -10 14 -10
4 2 -7 8 -13 25 -13 38 0 57 -63 133 -110 132 -8 -1 -1 -7 16 -14z"/>
<path d="M960 1095 c-6 -8 -10 -22 -7 -32 4 -15 5 -14 6 3 1 23 26 38 43 27 7
-3 8 -1 4 5 -10 16 -31 15 -46 -3z"/>
<path d="M911 1039 c0 -13 4 -33 9 -44 7 -14 8 -8 3 20 -7 46 -13 59 -12 24z"/>
<path d="M1010 1020 c6 -11 13 -20 16 -20 2 0 0 9 -6 20 -6 11 -13 20 -16 20
-2 0 0 -9 6 -20z"/>
<path d="M501 943 c-7 -37 -27 -99 -44 -138 -26 -57 -32 -83 -32 -141 0 -58 4
-77 25 -106 21 -32 66 -68 84 -68 3 0 6 8 6 18 0 13 -2 14 -9 4 -6 -10 -15 -8
-38 12 -72 61 -81 143 -29 268 32 79 64 203 54 213 -2 3 -10 -25 -17 -62z"/>
<path d="M601 987 c-2 -18 69 -157 80 -157 8 0 7 5 -2 16 -8 9 -28 47 -46 83
-17 36 -32 62 -32 58z"/>
<path d="M965 979 c-16 -8 -15 -8 9 -4 41 8 94 -12 110 -43 8 -15 19 -47 26
-71 6 -23 13 -41 15 -39 10 10 -27 114 -48 136 -27 26 -81 37 -112 21z"/>
<path d="M785 879 c-83 -26 -88 -29 -83 -34 5 -5 118 28 144 43 27 16 9 13
-61 -9z"/>
<path d="M755 807 c8 -18 164 -161 171 -155 2 3 -36 42 -86 87 -49 46 -88 76
-85 68z"/>
<path d="M697 766 c-73 -45 -97 -75 -96 -120 1 -25 3 -31 6 -16 9 62 16 71 73
110 33 22 60 43 60 45 0 7 -2 6 -43 -19z"/>
<path d="M994 772 c13 -14 25 -20 35 -16 9 4 34 10 56 14 39 7 39 8 7 9 -18 0
-42 -4 -53 -10 -16 -8 -25 -7 -42 8 l-22 18 19 -23z"/>
<path d="M1315 619 c-38 -22 -104 -62 -145 -89 -83 -53 -132 -69 -149 -48 -6
7 -20 24 -31 38 -19 23 -19 23 1 -13 28 -49 57 -56 117 -25 51 27 261 155 277
169 16 16 2 9 -70 -32z"/>
<path d="M1344 596 c-3 -7 -4 -33 -2 -57 3 -43 4 -42 8 14 5 58 4 68 -6 43z"/>
<path d="M546 555 c-9 -26 -7 -32 5 -12 6 10 9 21 6 23 -2 3 -7 -2 -11 -11z"/>
<path d="M1233 470 c0 -41 2 -58 4 -37 2 20 2 54 0 75 -2 20 -4 3 -4 -38z"/>
<path d="M1311 524 c0 -11 3 -14 6 -6 3 7 2 16 -1 19 -3 4 -6 -2 -5 -13z"/>
<path d="M1321 490 c0 -8 9 -35 20 -60 14 -31 18 -55 14 -77 -3 -18 -1 -41 5
-52 8 -16 6 -21 -11 -26 -11 -4 -18 -9 -16 -12 10 -9 48 18 40 30 -4 6 -7 36
-8 67 -2 48 -43 171 -44 130z"/>
<path d="M670 458 c-51 -17 -44 -17 36 -2 21 4 44 -1 72 -15 55 -28 67 -27 17
2 -61 35 -66 36 -125 15z"/>
<path d="M575 440 c41 -47 97 -80 136 -80 39 0 214 64 225 82 4 6 -1 6 -13 -1
-47 -24 -189 -71 -219 -71 -23 0 -48 13 -91 47 -32 26 -49 36 -38 23z"/>
<path d="M1010 342 l5 -47 3 39 c2 21 0 42 -5 47 -4 4 -6 -13 -3 -39z"/>
<path d="M1222 365 c0 -16 2 -22 5 -12 2 9 2 23 0 30 -3 6 -5 -1 -5 -18z"/>
<path d="M1235 277 c4 -67 5 -66 -104 -88 -75 -14 -91 -4 -102 63 l-6 43 -2
-42 c-1 -49 24 -83 62 -83 39 0 139 27 153 42 12 11 12 25 5 69 l-10 54 4 -58z"/>
<path d="M1420 203 c0 -2 18 -12 39 -21 35 -16 38 -19 25 -37 -13 -17 -19 -18
-86 -7 -85 13 -102 9 -28 -7 60 -13 151 -15 132 -2 -10 6 -10 10 2 21 13 10
20 9 41 -4 26 -17 33 -40 15 -51 -5 -3 -29 -10 -52 -14 -39 -8 -40 -9 -11 -10
51 -2 85 18 81 47 -2 14 -10 29 -18 33 -26 14 -140 57 -140 52z"/>
<path d="M1320 121 c24 -21 30 -31 19 -31 -9 0 -22 -7 -29 -15 -16 -19 -6 -19
25 1 31 20 68 3 63 -29 -8 -52 -162 -49 -280 6 -43 20 -78 34 -78 31 0 -3 35
-22 78 -42 71 -34 84 -37 168 -37 75 0 96 3 112 18 28 26 19 42 -52 88 -49 33
-54 35 -26 10z"/>
<path d="M1139 58 c24 -11 72 -22 105 -24 l61 -3 -64 10 c-35 5 -79 16 -98 24
-52 22 -55 17 -4 -7z"/>
<path d="M1318 43 c7 -3 16 -2 19 1 4 3 -2 6 -13 5 -11 0 -14 -3 -6 -6z"/>
</g>
</svg>
