<?xml version="1.0" standalone="no"?>
<!DOCTYPE svg PUBLIC "-//W3C//DTD SVG 20010904//EN"
 "http://www.w3.org/TR/2001/REC-SVG-20010904/DTD/svg10.dtd">
<svg version="1.0" xmlns="http://www.w3.org/2000/svg"
 width="200.000000pt" height="200.000000pt" viewBox="0 0 200.000000 200.000000"
 preserveAspectRatio="xMidYMid meet">

<g transform="translate(0.000000,200.000000) scale(0.100000,-0.100000)"
fill="#000000" stroke="none">
<path d="M603 1281 c-120 -41 -203 -155 -203 -281 0 -86 22 -148 71 -204 50
-57 91 -82 165 -101 103 -26 203 4 285 85 156 155 94 420 -115 499 -69 25
-134 26 -203 2z m206 -89 c56 -27 61 -46 25 -83 -31 -30 -32 -31 -62 -15 -39
20 -56 20 -77 0 -23 -23 -7 -37 75 -66 81 -29 115 -71 107 -132 -11 -81 -73
-126 -172 -126 -66 0 -128 23 -159 59 -20 22 -20 22 16 58 l36 36 22 -21 c29
-27 73 -36 100 -22 37 20 19 43 -55 72 -86 35 -115 65 -115 119 0 120 135 183
259 121z"/>
<path d="M297 1220 c-26 -23 -58 -66 -74 -98 -38 -77 -39 -182 -3 -257 24 -49
100 -135 120 -135 6 0 10 90 10 265 0 146 -2 265 -4 265 -2 0 -24 -18 -49 -40z"/>
<path d="M1650 996 c0 -259 1 -266 19 -257 35 19 99 102 115 148 9 26 16 77
16 114 0 56 -5 77 -32 130 -19 35 -51 77 -75 97 l-43 35 0 -267z"/>
<path d="M1291 1239 c-13 -5 -37 -21 -55 -36 l-31 -26 -3 31 -3 32 -65 0 -64
0 0 -365 0 -365 65 0 65 0 0 140 c0 77 3 140 6 140 3 0 19 -11 36 -25 44 -38
102 -50 167 -35 46 10 64 22 111 69 63 63 80 106 80 197 -1 138 -110 255 -236
253 -27 0 -60 -5 -73 -10z m99 -122 c40 -20 70 -74 70 -126 0 -132 -128 -195
-216 -107 -85 85 -29 245 86 246 19 0 46 -6 60 -13z"/>
<path d="M123 1158 c-69 -109 -62 -255 17 -355 l20 -26 0 212 c0 116 -2 211
-5 211 -3 0 -17 -19 -32 -42z"/>
<path d="M1835 995 c0 -132 4 -204 10 -202 6 2 25 31 43 66 26 52 32 76 32
126 0 34 -7 82 -15 106 -15 42 -55 109 -65 109 -3 0 -5 -92 -5 -205z"/>
<path d="M16 1072 c-20 -73 -19 -104 4 -167 l18 -50 1 138 c1 75 -1 137 -3
137 -2 0 -11 -26 -20 -58z"/>
<path d="M1951 988 c1 -137 1 -141 16 -108 22 50 27 130 13 189 -21 91 -30 67
-29 -81z"/>
</g>
</svg>
