<?xml version="1.0" standalone="no"?>
<!DOCTYPE svg PUBLIC "-//W3C//DTD SVG 20010904//EN"
 "http://www.w3.org/TR/2001/REC-SVG-20010904/DTD/svg10.dtd">
<svg version="1.0" xmlns="http://www.w3.org/2000/svg"
 width="392.000000pt" height="392.000000pt" viewBox="0 0 392.000000 392.000000"
 preserveAspectRatio="xMidYMid meet">

<g transform="translate(0.000000,392.000000) scale(0.100000,-0.100000)"
fill="#000000" stroke="none">
<path d="M0 1965 l0 -1955 1955 0 1955 0 2 1951 c2 1073 1 1953 -1 1955 -2 2
-883 4 -1958 4 l-1953 0 0 -1955z m430 1756 c19 -10 45 -36 57 -57 60 -103
-10 -224 -129 -224 -92 0 -152 61 -151 153 2 112 123 182 223 128z m2108
-1078 c50 -37 75 -96 75 -183 1 -136 -57 -212 -163 -212 -103 0 -161 73 -162
205 0 146 62 222 175 214 27 -3 60 -13 75 -24z m360 0 c50 -37 75 -96 75 -183
1 -136 -57 -212 -163 -212 -103 0 -161 73 -162 205 0 146 62 222 175 214 27
-3 60 -13 75 -24z m-1628 -18 l0 -35 -65 0 -65 0 0 -170 0 -170 -40 0 -40 0 0
170 0 170 -65 0 -65 0 0 35 0 35 170 0 170 0 0 -35z m948 -167 l-3 -203 -42
-3 -43 -3 0 151 c0 146 -1 150 -19 140 -11 -5 -32 -10 -46 -10 -24 0 -26 3
-23 33 2 24 8 33 25 35 13 2 33 16 45 32 19 24 31 29 66 29 l42 1 -2 -202z
m-693 78 c57 -37 77 -151 39 -218 -52 -90 -212 -90 -257 -1 -38 74 -28 159 24
209 46 44 135 49 194 10z m331 9 c49 -31 72 -161 39 -225 -36 -71 -122 -94
-170 -45 l-25 24 0 -79 0 -80 -45 0 -45 0 0 210 0 210 45 0 c40 0 45 -3 45
-22 l0 -21 23 20 c36 34 86 37 133 8z m914 -790 c0 -13 -98 -15 -825 -15 -454
0 -825 4 -825 8 0 5 3 12 7 15 3 4 375 7 825 7 720 0 818 -2 818 -15z m-1077
-357 c31 -32 31 -33 10 -36 -12 -2 -33 4 -47 14 -24 15 -28 15 -51 0 -49 -32
-26 -121 30 -114 34 4 44 23 15 31 -11 3 -20 12 -20 21 0 12 10 16 45 16 42 0
45 -2 45 -26 0 -38 -18 -64 -53 -79 -63 -26 -122 9 -134 78 -17 104 89 167
160 95z m97 -73 c0 -98 -1 -105 -20 -105 -19 0 -20 7 -20 105 0 98 1 105 20
105 19 0 20 -7 20 -105z m250 70 c0 -32 2 -35 19 -25 29 15 39 13 66 -15 29
-28 33 -79 10 -113 -13 -18 -25 -21 -75 -21 l-60 1 0 104 c0 97 1 104 20 104
16 0 20 -7 20 -35z m340 -70 l0 -105 -25 0 c-25 0 -25 0 -25 98 0 54 3 102 7
105 3 4 15 7 25 7 16 0 18 -10 18 -105z m-427 23 c22 -26 22 -80 -1 -108 -25
-31 -88 -32 -113 -1 -21 26 -25 72 -8 102 22 42 89 46 122 7z m320 21 c32 -17
37 -28 37 -92 l0 -58 -33 3 c-18 1 -38 -1 -44 -5 -6 -4 -23 -3 -37 3 -20 7
-26 17 -26 39 0 34 14 48 54 53 34 3 49 28 17 28 -11 0 -22 -4 -25 -9 -9 -14
-45 -1 -40 14 6 13 41 33 62 34 7 1 23 -4 35 -10z"/>
<path d="M261 3651 c-26 -17 -2 -28 51 -23 29 2 73 -1 98 -8 54 -14 54 -14 58
-1 10 30 -167 57 -207 32z"/>
<path d="M270 3600 c-23 -15 -6 -22 62 -25 35 -1 75 -6 91 -10 42 -12 33 11
-13 29 -44 18 -117 21 -140 6z"/>
<path d="M283 3553 c-30 -11 -11 -24 26 -18 25 4 51 1 75 -9 21 -9 38 -11 42
-5 13 22 -103 49 -143 32z"/>
<path d="M2423 2588 c-39 -19 -58 -100 -43 -180 12 -61 33 -88 70 -88 37 0 58
27 70 88 15 83 -5 162 -46 181 -14 6 -26 11 -27 10 -1 0 -12 -5 -24 -11z"/>
<path d="M2783 2588 c-39 -19 -58 -100 -43 -180 12 -61 33 -88 70 -88 37 0 58
27 70 88 15 83 -5 162 -46 181 -14 6 -26 11 -27 10 -1 0 -12 -5 -24 -11z"/>
<path d="M1396 2481 c-26 -28 -31 -91 -12 -129 14 -27 22 -32 52 -32 31 0 37
4 50 37 38 89 -34 186 -90 124z"/>
<path d="M1724 2475 c-23 -23 -26 -32 -22 -77 4 -34 12 -56 24 -65 40 -29 90
-5 94 47 6 72 -6 102 -47 115 -17 4 -30 -1 -49 -20z"/>
<path d="M2052 1328 c-30 -30 1 -94 33 -68 16 13 19 38 9 64 -7 19 -25 21 -42
4z"/>
<path d="M1874 1327 c-3 -9 -4 -28 -2 -44 2 -20 8 -28 23 -28 17 0 20 7 20 40
0 30 -4 41 -18 43 -9 2 -20 -3 -23 -11z"/>
<path d="M2233 1279 c-13 -5 -23 -13 -23 -19 0 -16 40 -12 47 5 8 21 2 24 -24
14z"/>
</g>
</svg>
