<?xml version="1.0" standalone="no"?>
<!DOCTYPE svg PUBLIC "-//W3C//DTD SVG 20010904//EN"
 "http://www.w3.org/TR/2001/REC-SVG-20010904/DTD/svg10.dtd">
<svg version="1.0" xmlns="http://www.w3.org/2000/svg"
 width="392.000000pt" height="392.000000pt" viewBox="0 0 392.000000 392.000000"
 preserveAspectRatio="xMidYMid meet">

<g transform="translate(0.000000,392.000000) scale(0.100000,-0.100000)"
fill="#000000" stroke="none">
<path d="M0 2986 c0 -884 1 -934 17 -931 10 2 885 4 1946 4 l1927 1 2 43 c1
23 5 -39 8 -138 3 -99 7 300 8 888 l2 1067 -1955 0 -1955 0 0 -934z m438 734
c71 -44 95 -143 50 -210 -38 -56 -73 -75 -133 -74 -121 1 -192 124 -132 228
41 72 144 99 215 56z m962 -1090 l0 -40 -60 0 -60 0 0 -171 0 -170 -47 3 -48
3 3 168 3 167 -65 0 -66 0 0 33 c0 19 3 37 7 40 3 4 80 7 170 7 l163 0 0 -40z
m1060 0 l0 -39 -87 -3 -88 -3 -3 -39 c-3 -34 -1 -38 15 -30 10 5 39 9 65 9 38
0 52 -5 77 -29 116 -111 6 -285 -154 -245 -49 12 -105 65 -105 98 0 15 9 20
41 23 34 3 44 0 56 -19 21 -32 57 -39 89 -19 21 15 25 23 22 59 -3 35 -8 44
-33 56 -26 12 -33 12 -58 -2 -20 -12 -40 -15 -69 -11 l-40 7 6 86 c4 47 9 98
12 114 l6 27 124 0 124 0 0 -40z m300 18 c50 -34 69 -66 81 -135 20 -112 -18
-219 -91 -255 -66 -34 -144 -17 -193 41 -61 73 -64 228 -6 312 42 59 148 78
209 37z m-1101 -107 c79 -57 81 -208 2 -268 -27 -21 -89 -34 -127 -27 -144 27
-165 249 -29 311 40 18 117 10 154 -16z m338 -3 c75 -68 70 -214 -9 -271 -34
-25 -101 -26 -128 -2 -19 17 -19 16 -22 -56 l-3 -74 -45 0 -45 0 -3 213 -2
212 51 0 c47 0 51 -2 46 -20 -5 -18 -2 -18 26 6 25 21 38 25 70 21 21 -3 50
-16 64 -29z"/>
<path d="M267 3653 c-10 -3 -16 -10 -14 -16 2 -6 28 -10 69 -8 41 1 79 -3 102
-13 24 -10 38 -11 42 -4 19 30 -125 60 -199 41z"/>
<path d="M283 3603 c-46 -9 -21 -23 43 -23 36 0 74 -5 85 -11 31 -16 47 -5 19
14 -26 17 -110 28 -147 20z"/>
<path d="M293 3553 c-39 -8 -25 -21 16 -16 21 3 55 0 76 -7 40 -13 58 -8 27 9
-24 13 -89 21 -119 14z"/>
<path d="M2631 2564 c-17 -22 -21 -40 -21 -101 0 -110 36 -162 90 -133 48 26
67 152 32 220 -23 47 -70 54 -101 14z"/>
<path d="M1550 2492 c-26 -9 -39 -36 -40 -82 0 -106 93 -125 114 -24 13 61
-29 121 -74 106z"/>
<path d="M1856 2474 c-24 -23 -21 -109 4 -134 43 -43 90 -8 90 69 0 55 -17 81
-55 81 -13 0 -31 -7 -39 -16z"/>
</g>
</svg>
