<?xml version="1.0" standalone="no"?>
<!DOCTYPE svg PUBLIC "-//W3C//DTD SVG 20010904//EN"
 "http://www.w3.org/TR/2001/REC-SVG-20010904/DTD/svg10.dtd">
<svg version="1.0" xmlns="http://www.w3.org/2000/svg"
 width="395.000000pt" height="392.000000pt" viewBox="0 0 395.000000 392.000000"
 preserveAspectRatio="xMidYMid meet">

<g transform="translate(0.000000,392.000000) scale(0.100000,-0.100000)"
fill="#000000" stroke="none">
<path d="M40 1965 l0 -1955 1953 0 1952 0 -3 1955 -2 1955 -1950 0 -1950 0 0
-1955z m428 1755 c53 -32 74 -75 69 -143 -3 -49 -8 -62 -37 -92 -110 -114
-295 -15 -260 138 22 98 142 149 228 97z m190 -692 l-3 -43 -72 -3 -73 -3 0
-200 0 -200 -52 3 -53 3 -3 198 -2 197 -70 0 -70 0 0 45 0 45 201 0 200 0 -3
-42z m330 -105 c62 -46 85 -114 70 -203 -16 -90 -78 -140 -173 -140 -48 0 -70
5 -95 23 -112 76 -116 240 -8 320 52 39 154 39 206 0z m242 1 l0 -26 31 26
c46 39 116 37 163 -4 19 -17 40 -47 47 -67 17 -53 13 -148 -8 -191 -39 -80
-141 -108 -202 -56 l-31 26 0 -91 0 -91 -50 0 -50 0 0 250 0 250 50 0 c47 0
50 -1 50 -26z m-668 -571 c37 -21 65 -58 74 -95 6 -28 5 -28 -41 -28 -39 0
-52 5 -75 30 -20 22 -37 30 -62 30 -43 0 -78 -24 -78 -55 0 -28 28 -46 104
-64 68 -17 120 -45 140 -76 25 -38 24 -109 -1 -142 -40 -54 -69 -68 -153 -72
-123 -5 -193 37 -207 125 l-6 34 52 0 c29 0 51 -5 51 -10 0 -6 11 -22 25 -35
32 -33 105 -35 135 -5 47 47 17 73 -128 110 -23 6 -58 24 -77 41 -82 72 -42
193 75 228 48 14 134 6 172 -16z m416 -130 c62 -46 85 -114 70 -203 -16 -90
-78 -140 -173 -140 -48 0 -70 5 -95 23 -112 76 -116 240 -8 320 52 39 154 39
206 0z m767 1 l25 -23 0 24 c0 24 3 25 55 25 l55 0 0 -198 c0 -225 -7 -250
-76 -286 -56 -30 -166 -29 -215 1 -35 22 -65 68 -51 77 20 12 80 8 102 -7 31
-21 94 -22 114 -1 10 10 16 32 15 62 0 26 -3 41 -6 34 -16 -41 -118 -54 -171
-22 -66 41 -93 168 -53 255 21 47 38 63 86 79 46 16 89 9 120 -20z m463 5 c21
-13 52 -60 52 -78 0 -20 -88 -13 -110 9 -31 31 -100 20 -100 -15 0 -18 22 -29
90 -44 80 -17 117 -42 126 -85 14 -76 -56 -136 -159 -136 -69 0 -116 18 -145
55 -32 40 -28 52 22 59 39 6 47 4 70 -19 27 -27 55 -32 87 -15 35 19 24 48
-23 60 -100 24 -122 33 -144 55 -43 43 -27 126 29 157 50 27 159 25 205 -3z
m-988 -5 l0 -26 31 26 c43 36 115 37 158 0 43 -36 53 -80 49 -219 l-3 -120
-50 0 -50 0 -5 130 c-5 127 -5 130 -32 144 -21 12 -31 13 -52 3 -38 -17 -46
-49 -46 -173 l0 -109 -50 0 -50 0 0 185 0 185 50 0 c47 0 50 -1 50 -26z m-838
-660 l3 -106 85 106 85 105 64 1 c73 0 77 14 -36 -122 -40 -47 -73 -90 -73
-96 0 -5 37 -62 81 -127 45 -66 83 -125 86 -132 4 -10 -10 -13 -54 -13 l-60 0
-67 101 -68 102 -24 -29 c-20 -24 -23 -40 -24 -102 l0 -73 -52 3 -53 3 -3 243
-2 242 54 0 55 0 3 -106z m623 -40 c46 -30 70 -82 70 -154 0 -82 -26 -136 -81
-168 -53 -31 -154 -28 -202 7 -96 68 -96 243 0 314 51 38 156 38 213 1z m373
21 c2 -2 -2 -21 -9 -44 -11 -38 -15 -41 -49 -41 -61 0 -69 -18 -72 -155 l-3
-120 -52 -3 -53 -3 0 185 0 186 50 0 c50 0 50 0 50 -32 l1 -33 14 25 c16 30
61 51 95 43 14 -3 26 -7 28 -8z m298 -11 c47 -23 84 -87 84 -147 l0 -47 -120
0 c-108 0 -120 -2 -120 -18 0 -10 7 -28 16 -40 20 -29 88 -31 118 -3 17 16 30
19 64 14 23 -3 42 -8 42 -12 0 -3 -9 -20 -19 -37 -25 -42 -77 -64 -148 -64
-93 0 -152 45 -173 133 -23 92 20 196 95 227 34 15 125 11 161 -6z m402 -4
c52 -32 63 -71 60 -218 l-3 -127 -47 -3 c-46 -3 -48 -2 -48 23 l0 27 -31 -26
c-51 -43 -160 -30 -189 23 -13 26 -13 87 1 113 13 25 84 57 126 58 17 0 44 5
58 10 35 13 31 51 -7 64 -23 8 -33 6 -58 -12 -20 -15 -44 -22 -75 -22 -25 0
-45 2 -45 5 0 20 36 69 63 85 45 28 150 28 195 0z m740 -1103 c2 -11 -3 -17
-17 -17 -23 0 -35 15 -26 31 10 15 39 6 43 -14z m-1678 -29 c16 -61 28 -95 29
-80 1 8 8 39 17 69 13 46 19 54 37 51 17 -2 25 -16 38 -68 18 -68 20 -67 39
18 10 45 15 52 36 52 13 0 24 -3 24 -7 0 -5 -13 -51 -28 -103 -23 -80 -31 -96
-50 -98 -19 -3 -24 5 -38 57 -10 34 -20 59 -23 55 -3 -3 -13 -29 -21 -57 -12
-39 -21 -53 -37 -55 -19 -3 -24 6 -43 70 -12 40 -25 86 -31 102 -12 38 -13 36
16 36 20 0 26 -7 35 -42z m620 -10 l0 -52 28 27 c15 15 38 27 51 27 l22 0 -27
-35 -27 -35 27 -40 c32 -48 32 -50 4 -50 -14 0 -31 12 -43 30 -25 38 -35 38
-35 0 0 -23 -4 -30 -20 -30 -19 0 -20 7 -20 105 0 98 1 105 20 105 17 0 20 -7
20 -52z m160 -43 c0 -52 0 -98 0 -102 1 -5 -8 -9 -20 -11 -19 -3 -20 2 -20
102 0 99 1 106 20 106 19 0 20 -7 20 -95z m349 28 c13 -34 27 -60 31 -58 4 3
18 32 30 65 20 54 25 60 51 60 l29 0 0 -106 c0 -104 0 -105 -22 -102 -21 3
-23 8 -23 60 0 31 -2 55 -5 52 -2 -3 -14 -29 -25 -57 -30 -75 -44 -71 -84 23
l-20 45 0 -62 c-1 -56 -3 -63 -21 -63 -19 0 -20 7 -20 106 l0 105 27 -3 c23
-3 31 -12 52 -65z m965 46 c14 -11 26 -27 26 -35 0 -19 -34 -18 -50 1 -16 20
-54 19 -71 -1 -19 -23 -15 -85 7 -101 25 -18 41 -16 61 7 21 24 53 26 53 5 0
-9 -11 -27 -25 -40 -59 -59 -155 -10 -155 78 0 91 86 140 154 86z m106 -8 c0
-28 2 -29 34 -24 47 7 68 -25 64 -99 -3 -46 -6 -53 -25 -56 -20 -3 -22 1 -25
55 -3 50 -6 58 -23 58 -17 0 -21 -8 -25 -55 -4 -47 -8 -55 -25 -55 -19 0 -20
8 -23 103 l-3 102 26 0 c21 0 25 -5 25 -29z m460 -1 c0 -11 7 -20 15 -20 8 0
15 -9 15 -20 0 -11 -7 -20 -15 -20 -11 0 -15 -11 -15 -35 0 -22 6 -38 15 -41
25 -10 19 -44 -8 -44 -35 0 -47 19 -47 72 0 26 -4 48 -10 48 -5 0 -10 9 -10
20 0 11 5 20 10 20 6 0 10 9 10 20 0 13 7 20 20 20 13 0 20 -7 20 -20z m-2300
-40 c11 -11 20 -31 20 -45 0 -23 -3 -25 -51 -25 -36 0 -49 -4 -46 -12 3 -9 21
-12 51 -11 50 3 58 -7 24 -31 -56 -39 -118 -5 -118 64 0 49 27 80 70 80 17 0
39 -9 50 -20z m170 0 c11 -11 20 -31 20 -45 0 -23 -3 -25 -51 -25 -36 0 -49
-4 -46 -12 3 -9 20 -12 51 -10 50 3 59 -8 24 -32 -30 -21 -71 -20 -99 3 -18
14 -24 29 -24 61 0 32 6 47 24 61 30 25 76 24 101 -1z m331 -22 c18 -63 24
-64 38 -8 11 43 16 50 38 50 16 0 23 -5 21 -12 -3 -7 -18 -51 -34 -97 -29 -85
-58 -119 -89 -107 -19 7 -20 36 -1 36 26 0 27 18 1 86 -30 80 -31 94 -5 94 14
0 22 -11 31 -42z m491 -15 c3 -50 6 -58 23 -58 17 0 20 8 23 58 3 53 5 57 27
57 24 0 25 -2 25 -75 0 -59 -3 -77 -16 -82 -8 -3 -20 -1 -26 5 -8 8 -15 8 -25
1 -20 -17 -63 -1 -73 27 -11 29 -13 107 -3 117 3 4 14 7 24 7 15 0 19 -10 21
-57z m240 40 c25 -22 23 -33 -7 -33 -14 0 -25 5 -25 11 0 12 -30 8 -33 -5 -1
-4 13 -13 32 -20 43 -14 60 -39 45 -63 -25 -41 -103 -42 -125 -2 -10 20 -9 21
17 17 16 -3 35 -7 43 -9 7 -2 15 1 18 7 2 7 -9 15 -24 19 -38 9 -53 23 -53 51
0 42 75 61 112 27z m88 -64 c0 -76 -1 -80 -21 -77 -19 3 -21 9 -21 76 1 39 1
74 1 77 1 3 10 5 21 5 18 0 20 -7 20 -81z m148 65 c12 -8 22 -22 22 -30 0 -16
-36 -19 -45 -4 -3 6 -15 10 -25 10 -21 0 -34 -31 -25 -60 7 -21 39 -27 50 -10
9 15 45 12 45 -4 0 -21 -39 -46 -70 -46 -41 0 -70 34 -70 80 0 69 63 103 118
64z m616 -3 c13 -14 16 -33 14 -77 l-3 -59 -50 -1 c-61 -2 -85 9 -85 40 0 29
17 44 58 52 33 7 40 18 21 30 -6 3 -16 1 -22 -5 -16 -16 -47 -14 -47 4 0 35
85 48 114 16z m86 7 c0 -9 3 -9 12 0 11 11 48 17 48 8 0 -18 -15 -36 -30 -36
-22 0 -30 -19 -30 -76 0 -37 -3 -44 -20 -44 -18 0 -20 7 -20 80 0 73 2 80 20
80 11 0 20 -5 20 -12z"/>
<path d="M297 3653 c-10 -3 -16 -10 -14 -16 2 -6 28 -10 69 -8 41 1 79 -3 102
-13 23 -10 38 -11 42 -5 20 33 -121 62 -199 42z"/>
<path d="M310 3598 c-23 -11 -18 -13 50 -19 41 -3 85 -10 98 -14 31 -11 28 9
-5 24 -40 18 -114 23 -143 9z"/>
<path d="M318 3553 c-34 -9 -18 -21 21 -16 21 3 55 0 76 -7 48 -16 58 -4 12
15 -35 15 -74 17 -109 8z"/>
<path d="M835 2850 c-28 -31 -31 -117 -6 -157 17 -27 27 -33 56 -33 48 0 70
35 70 111 0 42 -5 62 -19 78 -25 27 -77 28 -101 1z"/>
<path d="M1255 2850 c-10 -11 -20 -41 -23 -68 -8 -86 42 -142 103 -114 49 22
58 139 14 183 -25 25 -71 24 -94 -1z"/>
<path d="M825 2150 c-28 -31 -31 -117 -6 -157 17 -27 27 -33 56 -33 48 0 70
35 70 111 0 42 -5 62 -19 78 -25 27 -77 28 -101 1z"/>
<path d="M1664 2162 c-22 -14 -34 -51 -34 -101 0 -60 24 -91 70 -91 46 0 70
31 70 91 0 75 -22 109 -70 109 -14 0 -30 -4 -36 -8z"/>
<path d="M846 1448 c-34 -54 -26 -157 14 -178 59 -32 110 11 110 92 0 78 -21
108 -77 108 -23 0 -37 -7 -47 -22z"/>
<path d="M1570 1473 c-25 -9 -50 -35 -50 -52 0 -13 13 -16 70 -16 56 0 70 3
70 15 0 21 -11 35 -37 49 -23 12 -30 12 -53 4z"/>
<path d="M1981 1338 c-49 -8 -71 -23 -71 -47 0 -41 60 -55 100 -23 15 12 21
26 18 48 -3 29 -4 30 -47 22z"/>
<path d="M1430 345 c-11 -13 -8 -15 19 -15 33 0 42 14 15 24 -21 8 -20 8 -34
-9z"/>
<path d="M1600 345 c-11 -13 -8 -15 20 -15 28 0 31 2 20 15 -7 8 -16 15 -20
15 -4 0 -13 -7 -20 -15z"/>
<path d="M3510 290 c-11 -6 -12 -12 -4 -20 13 -13 44 -2 44 16 0 16 -18 18
-40 4z"/>
</g>
</svg>
