<?xml version="1.0" encoding="UTF-8"?>
<!DOCTYPE svg PUBLIC "-//W3C//DTD SVG 1.1//EN" "http://www.w3.org/Graphics/SVG/1.1/DTD/svg11.dtd">
<svg xmlns="http://www.w3.org/2000/svg" version="1.1" width="392px" height="392px" style="shape-rendering:geometricPrecision; text-rendering:geometricPrecision; image-rendering:optimizeQuality; fill-rule:evenodd; clip-rule:evenodd" xmlns:xlink="http://www.w3.org/1999/xlink">
<g><path style="opacity:1" fill="#ff67c2" d="M -0.5,-0.5 C 129.833,-0.5 260.167,-0.5 390.5,-0.5C 390.5,10.1667 390.5,20.8333 390.5,31.5C 389.532,29.3926 389.198,27.0593 389.5,24.5C 389.5,20.5 389.5,16.5 389.5,12.5C 389.663,10.1432 389.497,7.80982 389,5.5C 388.804,7.28613 387.971,8.61946 386.5,9.5C 257.561,9.43809 128.561,9.10476 -0.5,8.5C -0.5,5.5 -0.5,2.5 -0.5,-0.5 Z"/></g>
<g><path style="opacity:1" fill="#ff69c0" d="M 389.5,12.5 C 259.224,13.1701 129.224,13.8368 -0.5,14.5C -0.5,12.5 -0.5,10.5 -0.5,8.5C 128.561,9.10476 257.561,9.43809 386.5,9.5C 387.971,8.61946 388.804,7.28613 389,5.5C 389.497,7.80982 389.663,10.1432 389.5,12.5 Z"/></g>
<g><path style="opacity:1" fill="#ff6dbe" d="M 389.5,12.5 C 389.5,16.5 389.5,20.5 389.5,24.5C 388.539,26.2646 388.205,28.2646 388.5,30.5C 276.665,30.1672 164.999,30.5005 53.5,31.5C 52.71,32.6085 52.21,33.9419 52,35.5C 51.8019,33.6183 51.3019,31.9516 50.5,30.5C 47.6395,19.726 40.6395,15.5593 29.5,18C 22.1129,21.9389 18.7796,28.1056 19.5,36.5C 18.4789,36.1007 18.1455,34.7674 18.5,32.5C 13.1563,32.334 7.82294,32.5006 2.5,33C 7.16667,33.3333 11.8333,33.6667 16.5,34C 10.8431,34.4994 5.17645,34.6661 -0.5,34.5C -0.5,27.8333 -0.5,21.1667 -0.5,14.5C 129.224,13.8368 259.224,13.1701 389.5,12.5 Z"/></g>
<g><path style="opacity:1" fill="#fbd3e8" d="M 50.5,30.5 C 49.6841,44.4271 42.3508,49.9271 28.5,47C 24.1987,44.5319 21.1987,41.0319 19.5,36.5C 18.7796,28.1056 22.1129,21.9389 29.5,18C 40.6395,15.5593 47.6395,19.726 50.5,30.5 Z"/></g>
<g><path style="opacity:1" fill="#fe78c0" d="M 25.5,25.5 C 32.3614,24.9651 39.028,25.7984 45.5,28C 46.3366,29.0113 46.67,30.1779 46.5,31.5C 39.4165,29.3047 32.0832,27.9713 24.5,27.5C 24.8627,26.8165 25.1961,26.1499 25.5,25.5 Z"/></g>
<g><path style="opacity:1" fill="#ff6fba" d="M 389.5,24.5 C 389.198,27.0593 389.532,29.3926 390.5,31.5C 390.5,37.8333 390.5,44.1667 390.5,50.5C 389.539,48.7354 389.205,46.7354 389.5,44.5C 389.5,41.1667 389.5,37.8333 389.5,34.5C 277.5,34.6667 165.5,34.5 53.5,34C 165.167,33.6667 276.833,33.3333 388.5,33C 276.666,32.8331 164.999,32.3331 53.5,31.5C 164.999,30.5005 276.665,30.1672 388.5,30.5C 388.205,28.2646 388.539,26.2646 389.5,24.5 Z"/></g>
<g><path style="opacity:1" fill="#ff73b8" d="M 50.5,30.5 C 51.3019,31.9516 51.8019,33.6183 52,35.5C 52.21,33.9419 52.71,32.6085 53.5,31.5C 164.999,32.3331 276.666,32.8331 388.5,33C 276.833,33.3333 165.167,33.6667 53.5,34C 165.5,34.5 277.5,34.6667 389.5,34.5C 389.5,37.8333 389.5,41.1667 389.5,44.5C 388.527,46.9479 388.194,49.6146 388.5,52.5C 259.168,53.5006 129.501,53.8339 -0.5,53.5C -0.5,47.1667 -0.5,40.8333 -0.5,34.5C 5.17645,34.6661 10.8431,34.4994 16.5,34C 11.8333,33.6667 7.16667,33.3333 2.5,33C 7.82294,32.5006 13.1563,32.334 18.5,32.5C 18.1455,34.7674 18.4789,36.1007 19.5,36.5C 21.1987,41.0319 24.1987,44.5319 28.5,47C 42.3508,49.9271 49.6841,44.4271 50.5,30.5 Z"/></g>
<g><path style="opacity:1" fill="#fe7fc1" d="M 26.5,30.5 C 33.0549,29.6336 39.0549,30.9669 44.5,34.5C 43.8333,34.8333 43.1667,35.1667 42.5,35.5C 36.9501,34.0439 31.2835,33.0439 25.5,32.5C 25.8627,31.8165 26.1961,31.1499 26.5,30.5 Z"/></g>
<g><path style="opacity:1" fill="#fe80c0" d="M 27.5,35.5 C 33.0264,34.711 38.0264,35.8777 42.5,39C 37.2562,38.1941 31.9229,37.5275 26.5,37C 27.056,36.6174 27.3893,36.1174 27.5,35.5 Z"/></g>
<g><path style="opacity:1" fill="#ff79b2" d="M 389.5,44.5 C 389.205,46.7354 389.539,48.7354 390.5,50.5C 390.5,56.5 390.5,62.5 390.5,68.5C 389.732,67.7375 389.232,66.7375 389,65.5C 388.503,68.146 388.336,70.8127 388.5,73.5C 258.984,73.4606 129.317,73.4606 -0.5,73.5C -0.5,66.8333 -0.5,60.1667 -0.5,53.5C 129.501,53.8339 259.168,53.5006 388.5,52.5C 388.194,49.6146 388.527,46.9479 389.5,44.5 Z"/></g>
<g><path style="opacity:1" fill="#ff7daf" d="M 390.5,68.5 C 390.5,74.5 390.5,80.5 390.5,86.5C 388.96,84.1617 388.294,81.4951 388.5,78.5C 258.833,78.5 129.167,78.5 -0.5,78.5C -0.5,76.8333 -0.5,75.1667 -0.5,73.5C 129.317,73.4606 258.984,73.4606 388.5,73.5C 388.336,70.8127 388.503,68.146 389,65.5C 389.232,66.7375 389.732,67.7375 390.5,68.5 Z"/></g>
<g><path style="opacity:1" fill="#ff80ac" d="M -0.5,78.5 C 129.167,78.5 258.833,78.5 388.5,78.5C 388.294,81.4951 388.96,84.1617 390.5,86.5C 390.5,92.5 390.5,98.5 390.5,104.5C 390.167,104.5 389.833,104.5 389.5,104.5C 389.666,99.1563 389.499,93.8229 389,88.5C 388.505,90.4727 388.338,92.4727 388.5,94.5C -126.166,94.6667 -126.166,95.1667 388.5,96C 258.834,96.5 129.167,96.6667 -0.5,96.5C -0.5,90.5 -0.5,84.5 -0.5,78.5 Z"/></g>
<g><path style="opacity:1" fill="#ff84a9" d="M 389.5,104.5 C 389.649,105.552 389.483,106.552 389,107.5C 388.503,105.19 388.337,102.857 388.5,100.5C 258.833,100.5 129.167,100.5 -0.5,100.5C -0.5,99.1667 -0.5,97.8333 -0.5,96.5C 129.167,96.6667 258.834,96.5 388.5,96C -126.166,95.1667 -126.166,94.6667 388.5,94.5C 388.338,92.4727 388.505,90.4727 389,88.5C 389.499,93.8229 389.666,99.1563 389.5,104.5 Z"/></g>
<g><path style="opacity:1" fill="#ff87a6" d="M -0.5,100.5 C 129.167,100.5 258.833,100.5 388.5,100.5C 388.337,102.857 388.503,105.19 389,107.5C 389.483,106.552 389.649,105.552 389.5,104.5C 389.833,104.5 390.167,104.5 390.5,104.5C 390.5,109.167 390.5,113.833 390.5,118.5C 390.167,118.5 389.833,118.5 389.5,118.5C 389.665,115.15 389.498,111.817 389,108.5C 388.505,110.473 388.338,112.473 388.5,114.5C 258.487,114.173 128.82,114.506 -0.5,115.5C -0.5,110.5 -0.5,105.5 -0.5,100.5 Z"/></g>
<g><path style="opacity:1" fill="#ff8aa3" d="M 389.5,118.5 C 389.665,121.518 389.498,124.518 389,127.5C 388.506,125.866 388.34,124.199 388.5,122.5C 352.151,121.84 316.151,122.506 280.5,124.5C 277.5,124.5 274.5,124.5 271.5,124.5C 270.262,124.19 270.262,123.69 271.5,123C 268.667,122.833 265.833,122.667 263,122.5C 252.009,124.231 240.842,124.897 229.5,124.5C 229.389,123.883 229.056,123.383 228.5,123C 221.247,122.196 214.081,122.696 207,124.5C 186.893,122.443 166.726,121.943 146.5,123C 148.311,124.041 148.645,125.207 147.5,126.5C 146.833,125.167 145.833,124.167 144.5,123.5C 141.998,122.686 139.498,122.353 137,122.5C 135.475,123.72 133.641,124.387 131.5,124.5C 121.564,121.861 111.731,121.861 102,124.5C 67.8854,122.562 33.7188,121.896 -0.5,122.5C -0.5,120.167 -0.5,117.833 -0.5,115.5C 128.82,114.506 258.487,114.173 388.5,114.5C 388.338,112.473 388.505,110.473 389,108.5C 389.498,111.817 389.665,115.15 389.5,118.5 Z"/></g>
<g><path style="opacity:1" fill="#ff8ea0" d="M -0.5,122.5 C 33.7188,121.896 67.8854,122.562 102,124.5C 111.731,121.861 121.564,121.861 131.5,124.5C 133.641,124.387 135.475,123.72 137,122.5C 139.498,122.353 141.998,122.686 144.5,123.5C 138.296,123.314 136.963,125.814 140.5,131C 144.57,131.975 146.903,130.475 147.5,126.5C 148.645,125.207 148.311,124.041 146.5,123C 166.726,121.943 186.893,122.443 207,124.5C 214.081,122.696 221.247,122.196 228.5,123C 229.056,123.383 229.389,123.883 229.5,124.5C 229.5,124.833 229.5,125.167 229.5,125.5C 227.883,130.916 227.216,136.583 227.5,142.5C 226.839,143.718 226.172,145.051 225.5,146.5C 221.759,144.669 217.759,144.003 213.5,144.5C 213.649,143.448 213.483,142.448 213,141.5C 212.814,144.036 212.314,146.369 211.5,148.5C 211.5,140.833 211.5,133.167 211.5,125.5C 208.833,125.5 206.167,125.5 203.5,125.5C 202.507,133.984 202.174,142.651 202.5,151.5C 201.022,152.448 200.022,153.781 199.5,155.5C 199.817,151.298 199.483,147.298 198.5,143.5C 197.817,139.98 195.817,137.48 192.5,136C 188.179,135.501 183.846,135.334 179.5,135.5C 177.167,135.5 174.833,135.5 172.5,135.5C 172.754,137.401 172.42,138.067 171.5,137.5C 170.666,136.252 169.333,135.585 167.5,135.5C 163.569,135.047 161.069,136.714 160,140.5C 159.506,138.866 159.34,137.199 159.5,135.5C 156.833,135.5 154.167,135.5 151.5,135.5C 150.512,140.64 150.179,145.974 150.5,151.5C 149.673,146.349 149.173,141.016 149,135.5C 148.817,138.365 148.317,141.031 147.5,143.5C 147.806,140.615 147.473,137.948 146.5,135.5C 143.833,135.5 141.167,135.5 138.5,135.5C 137.698,136.952 137.198,138.618 137,140.5C 136.605,137.348 135.772,134.348 134.5,131.5C 134.833,129.5 135.167,127.5 135.5,125.5C 132.482,125.335 129.482,125.502 126.5,126C 125.268,128.766 124.268,131.599 123.5,134.5C 121.192,134.914 118.858,135.247 116.5,135.5C 114.076,134.979 111.743,134.312 109.5,133.5C 108.629,130.888 107.963,128.221 107.5,125.5C 104.102,125.18 100.768,125.513 97.5,126.5C 98.9094,129.727 99.9094,133.06 100.5,136.5C 100.565,136.938 100.399,137.272 100,137.5C 99.3333,136.167 98.6667,134.833 98,133.5C 65.3895,135.489 32.5562,136.155 -0.5,135.5C -0.5,131.167 -0.5,126.833 -0.5,122.5 Z"/></g>
<g><path style="opacity:1" fill="#ff92a2" d="M 271.5,124.5 C 264.333,127.803 260.333,133.469 259.5,141.5C 258.478,146.739 257.478,151.405 256.5,155.5C 255.956,141.442 249.123,136.775 236,141.5C 235.502,138.518 235.335,135.518 235.5,132.5C 241.5,132.5 247.5,132.5 253.5,132.5C 253.5,130.167 253.5,127.833 253.5,125.5C 245.5,125.5 237.5,125.5 229.5,125.5C 229.5,125.167 229.5,124.833 229.5,124.5C 240.842,124.897 252.009,124.231 263,122.5C 265.833,122.667 268.667,122.833 271.5,123C 270.262,123.69 270.262,124.19 271.5,124.5 Z"/></g>
<g><path style="opacity:1" fill="#ff8da0" d="M 389.5,118.5 C 389.833,118.5 390.167,118.5 390.5,118.5C 390.5,125.833 390.5,133.167 390.5,140.5C 390.167,140.5 389.833,140.5 389.5,140.5C 389.665,136.818 389.499,133.152 389,129.5C 388.505,131.473 388.338,133.473 388.5,135.5C 355.802,135.812 323.136,135.479 290.5,134.5C 288.139,130.139 284.806,126.806 280.5,124.5C 316.151,122.506 352.151,121.84 388.5,122.5C 388.34,124.199 388.506,125.866 389,127.5C 389.498,124.518 389.665,121.518 389.5,118.5 Z"/></g>
<g><path style="opacity:1" fill="#fff8f9" d="M 144.5,123.5 C 145.833,124.167 146.833,125.167 147.5,126.5C 146.903,130.475 144.57,131.975 140.5,131C 136.963,125.814 138.296,123.314 144.5,123.5 Z"/></g>
<g><path style="opacity:1" fill="#fffafa" d="M 109.5,133.5 C 111.829,140.821 114.162,148.155 116.5,155.5C 119.037,148.556 121.37,141.556 123.5,134.5C 124.268,131.599 125.268,128.766 126.5,126C 129.482,125.502 132.482,125.335 135.5,125.5C 135.167,127.5 134.833,129.5 134.5,131.5C 131.646,137.897 129.313,144.564 127.5,151.5C 125.261,156.216 123.595,161.216 122.5,166.5C 118.818,166.665 115.152,166.499 111.5,166C 109.909,161.711 108.242,157.544 106.5,153.5C 106.072,150.215 105.072,147.215 103.5,144.5C 103.267,141.458 102.267,138.792 100.5,136.5C 99.9094,133.06 98.9094,129.727 97.5,126.5C 100.768,125.513 104.102,125.18 107.5,125.5C 107.963,128.221 108.629,130.888 109.5,133.5 Z"/></g>
<g><path style="opacity:1" fill="#fffcfc" d="M 203.5,125.5 C 206.167,125.5 208.833,125.5 211.5,125.5C 211.5,133.167 211.5,140.833 211.5,148.5C 211.5,149.167 211.5,149.833 211.5,150.5C 211.5,155.5 211.5,160.5 211.5,165.5C 208.833,165.5 206.167,165.5 203.5,165.5C 203.5,152.167 203.5,138.833 203.5,125.5 Z"/></g>
<g><path style="opacity:1" fill="#fffafa" d="M 229.5,125.5 C 237.5,125.5 245.5,125.5 253.5,125.5C 253.5,127.833 253.5,130.167 253.5,132.5C 247.5,132.5 241.5,132.5 235.5,132.5C 235.335,135.518 235.502,138.518 236,141.5C 249.123,136.775 255.956,141.442 256.5,155.5C 251.119,166.351 242.786,169.184 231.5,164C 229.598,162.27 227.931,160.437 226.5,158.5C 226.5,157.167 226.5,155.833 226.5,154.5C 231.187,153.744 234.853,155.244 237.5,159C 245.836,160.327 249.003,156.827 247,148.5C 246.097,147.299 244.931,146.465 243.5,146C 238.265,146.754 232.931,147.254 227.5,147.5C 227.5,145.833 227.5,144.167 227.5,142.5C 227.216,136.583 227.883,130.916 229.5,125.5 Z"/></g>
<g><path style="opacity:1" fill="#fffafa" d="M 271.5,124.5 C 274.5,124.5 277.5,124.5 280.5,124.5C 284.806,126.806 288.139,130.139 290.5,134.5C 292.184,139.676 292.85,145.009 292.5,150.5C 291.89,151.391 291.557,152.391 291.5,153.5C 288.398,164.563 281.065,168.73 269.5,166C 261.016,160.07 257.683,151.903 259.5,141.5C 260.333,133.469 264.333,127.803 271.5,124.5 Z"/></g>
<g><path style="opacity:1" fill="#ff919d" d="M 389.5,140.5 C 389.664,143.187 389.497,145.854 389,148.5C 388.51,147.207 388.343,145.873 388.5,144.5C 357.167,144.5 325.833,144.5 294.5,144.5C 294.741,146.898 294.074,148.898 292.5,150.5C 292.85,145.009 292.184,139.676 290.5,134.5C 323.136,135.479 355.802,135.812 388.5,135.5C 388.338,133.473 388.505,131.473 389,129.5C 389.499,133.152 389.665,136.818 389.5,140.5 Z"/></g>
<g><path style="opacity:1" fill="#ff919d" d="M 100.5,136.5 C 102.267,138.792 103.267,141.458 103.5,144.5C 103.631,145.239 103.464,145.906 103,146.5C 68.7221,144.511 34.2221,143.844 -0.5,144.5C -0.5,141.5 -0.5,138.5 -0.5,135.5C 32.5562,136.155 65.3895,135.489 98,133.5C 98.6667,134.833 99.3333,136.167 100,137.5C 100.399,137.272 100.565,136.938 100.5,136.5 Z"/></g>
<g><path style="opacity:1" fill="#ff929e" d="M 109.5,133.5 C 111.743,134.312 114.076,134.979 116.5,135.5C 118.858,135.247 121.192,134.914 123.5,134.5C 121.37,141.556 119.037,148.556 116.5,155.5C 114.162,148.155 111.829,140.821 109.5,133.5 Z"/></g>
<g><path style="opacity:1" fill="#ff949e" d="M 273.5,131.5 C 276.505,131.253 279.005,132.253 281,134.5C 284.333,141.833 284.333,149.167 281,156.5C 276.181,160.919 272.181,160.252 269,154.5C 268.333,148.833 268.333,143.167 269,137.5C 270.332,135.34 271.832,133.34 273.5,131.5 Z"/></g>
<g><path style="opacity:1" fill="#fffdfd" d="M 138.5,135.5 C 141.167,135.5 143.833,135.5 146.5,135.5C 146.5,145.5 146.5,155.5 146.5,165.5C 143.833,165.5 141.167,165.5 138.5,165.5C 138.5,163.5 138.5,161.5 138.5,159.5C 138.5,151.5 138.5,143.5 138.5,135.5 Z"/></g>
<g><path style="opacity:1" fill="#fffdfd" d="M 151.5,135.5 C 154.167,135.5 156.833,135.5 159.5,135.5C 159.34,137.199 159.506,138.866 160,140.5C 161.069,136.714 163.569,135.047 167.5,135.5C 169.333,135.585 170.666,136.252 171.5,137.5C 170.069,138.78 169.402,140.447 169.5,142.5C 167.473,142.338 165.473,142.505 163.5,143C 161.574,143.422 160.574,144.589 160.5,146.5C 159.51,152.645 159.177,158.978 159.5,165.5C 156.833,165.5 154.167,165.5 151.5,165.5C 151.5,155.5 151.5,145.5 151.5,135.5 Z"/></g>
<g><path style="opacity:1" fill="#fffbfb" d="M 179.5,135.5 C 183.846,135.334 188.179,135.501 192.5,136C 195.817,137.48 197.817,139.98 198.5,143.5C 198.5,150.833 198.5,158.167 198.5,165.5C 195.833,165.5 193.167,165.5 190.5,165.5C 190.649,164.448 190.483,163.448 190,162.5C 186.208,166.128 181.708,167.294 176.5,166C 172.308,163.78 170.641,160.28 171.5,155.5C 172.203,153.284 173.536,151.451 175.5,150C 179.768,148.817 184.101,147.817 188.5,147C 190.353,143.553 189.353,141.72 185.5,141.5C 183.312,141.307 181.645,142.141 180.5,144C 177.854,144.497 175.187,144.664 172.5,144.5C 173.686,140.643 176.02,137.643 179.5,135.5 Z"/></g>
<g><path style="opacity:1" fill="#ff959e" d="M 134.5,131.5 C 135.772,134.348 136.605,137.348 137,140.5C 137.198,138.618 137.698,136.952 138.5,135.5C 138.5,143.5 138.5,151.5 138.5,159.5C 136.692,158.082 136.025,156.082 136.5,153.5C 133.606,153.958 131.106,153.291 129,151.5C 128.221,154.097 127.721,154.097 127.5,151.5C 129.313,144.564 131.646,137.897 134.5,131.5 Z"/></g>
<g><path style="opacity:1" fill="#ff959e" d="M 179.5,135.5 C 176.02,137.643 173.686,140.643 172.5,144.5C 175.187,144.664 177.854,144.497 180.5,144C 181.645,142.141 183.312,141.307 185.5,141.5C 189.353,141.72 190.353,143.553 188.5,147C 184.101,147.817 179.768,148.817 175.5,150C 173.536,151.451 172.203,153.284 171.5,155.5C 170.71,156.609 170.21,157.942 170,159.5C 169.626,157.102 169.626,154.769 170,152.5C 167.619,153.435 165.119,153.768 162.5,153.5C 162.279,150.933 161.612,148.599 160.5,146.5C 160.574,144.589 161.574,143.422 163.5,143C 165.473,142.505 167.473,142.338 169.5,142.5C 169.402,140.447 170.069,138.78 171.5,137.5C 172.42,138.067 172.754,137.401 172.5,135.5C 174.833,135.5 177.167,135.5 179.5,135.5 Z"/></g>
<g><path style="opacity:1" fill="#ff949b" d="M -0.5,144.5 C 34.2221,143.844 68.7221,144.511 103,146.5C 103.464,145.906 103.631,145.239 103.5,144.5C 105.072,147.215 106.072,150.215 106.5,153.5C 106.631,154.239 106.464,154.906 106,155.5C 88.8855,154.174 71.5522,153.507 54,153.5C 35.4853,153.52 17.3186,153.853 -0.5,154.5C -0.5,151.167 -0.5,147.833 -0.5,144.5 Z"/></g>
<g><path style="opacity:1" fill="#ff939a" d="M 389.5,140.5 C 389.833,140.5 390.167,140.5 390.5,140.5C 390.5,147.833 390.5,155.167 390.5,162.5C 390.167,162.5 389.833,162.5 389.5,162.5C 389.665,158.818 389.499,155.152 389,151.5C 356.667,152.833 324.333,154.167 292,155.5C 291.536,154.906 291.369,154.239 291.5,153.5C 291.557,152.391 291.89,151.391 292.5,150.5C 294.074,148.898 294.741,146.898 294.5,144.5C 325.833,144.5 357.167,144.5 388.5,144.5C 388.343,145.873 388.51,147.207 389,148.5C 389.497,145.854 389.664,143.187 389.5,140.5 Z"/></g>
<g><path style="opacity:1" fill="#ffd2d4" d="M 203.5,125.5 C 203.5,138.833 203.5,152.167 203.5,165.5C 206.167,165.5 208.833,165.5 211.5,165.5C 208.713,166.477 205.713,166.81 202.5,166.5C 202.5,161.5 202.5,156.5 202.5,151.5C 202.174,142.651 202.507,133.984 203.5,125.5 Z"/></g>
<g><path style="opacity:1" fill="#ffc8ca" d="M 146.5,135.5 C 147.473,137.948 147.806,140.615 147.5,143.5C 147.5,151.167 147.5,158.833 147.5,166.5C 144.287,166.81 141.287,166.477 138.5,165.5C 141.167,165.5 143.833,165.5 146.5,165.5C 146.5,155.5 146.5,145.5 146.5,135.5 Z"/></g>
<g><path style="opacity:1" fill="#ff9897" d="M 150.5,151.5 C 150.5,156.5 150.5,161.5 150.5,166.5C 153.833,166.5 157.167,166.5 160.5,166.5C 160.5,159.833 160.5,153.167 160.5,146.5C 161.612,148.599 162.279,150.933 162.5,153.5C 165.119,153.768 167.619,153.435 170,152.5C 169.626,154.769 169.626,157.102 170,159.5C 170.21,157.942 170.71,156.609 171.5,155.5C 170.641,160.28 172.308,163.78 176.5,166C 181.708,167.294 186.208,166.128 190,162.5C 190.483,163.448 190.649,164.448 190.5,165.5C 193.287,166.477 196.287,166.81 199.5,166.5C 199.5,162.833 199.5,159.167 199.5,155.5C 200.022,153.781 201.022,152.448 202.5,151.5C 202.5,156.5 202.5,161.5 202.5,166.5C 205.713,166.81 208.713,166.477 211.5,165.5C 211.5,160.5 211.5,155.5 211.5,150.5C 212.309,152.292 212.809,154.292 213,156.5C 213.483,155.552 213.649,154.552 213.5,153.5C 217.167,153.5 220.833,153.5 224.5,153.5C 224.372,155.655 224.872,157.655 226,159.5C 226.399,159.272 226.565,158.938 226.5,158.5C 227.931,160.437 229.598,162.27 231.5,164C 242.786,169.184 251.119,166.351 256.5,155.5C 257.478,151.405 258.478,146.739 259.5,141.5C 257.683,151.903 261.016,160.07 269.5,166C 281.065,168.73 288.398,164.563 291.5,153.5C 291.369,154.239 291.536,154.906 292,155.5C 324.333,154.167 356.667,152.833 389,151.5C 389.499,155.152 389.665,158.818 389.5,162.5C 389.665,165.518 389.498,168.518 389,171.5C 388,170.833 387,170.167 386,169.5C 257.261,170.341 128.428,170.341 -0.5,169.5C -0.5,164.5 -0.5,159.5 -0.5,154.5C 17.3186,153.853 35.4853,153.52 54,153.5C 71.5522,153.507 88.8855,154.174 106,155.5C 106.464,154.906 106.631,154.239 106.5,153.5C 108.242,157.544 109.909,161.711 111.5,166C 115.152,166.499 118.818,166.665 122.5,166.5C 123.595,161.216 125.261,156.216 127.5,151.5C 127.721,154.097 128.221,154.097 129,151.5C 131.106,153.291 133.606,153.958 136.5,153.5C 136.025,156.082 136.692,158.082 138.5,159.5C 138.5,161.5 138.5,163.5 138.5,165.5C 141.287,166.477 144.287,166.81 147.5,166.5C 147.5,158.833 147.5,151.167 147.5,143.5C 148.317,141.031 148.817,138.365 149,135.5C 149.173,141.016 149.673,146.349 150.5,151.5 Z"/></g>
<g><path style="opacity:1" fill="#ff969c" d="M 227.5,142.5 C 227.5,144.167 227.5,145.833 227.5,147.5C 232.931,147.254 238.265,146.754 243.5,146C 244.931,146.465 246.097,147.299 247,148.5C 249.003,156.827 245.836,160.327 237.5,159C 234.853,155.244 231.187,153.744 226.5,154.5C 226.5,155.833 226.5,157.167 226.5,158.5C 226.565,158.938 226.399,159.272 226,159.5C 224.872,157.655 224.372,155.655 224.5,153.5C 220.833,153.5 217.167,153.5 213.5,153.5C 213.649,154.552 213.483,155.552 213,156.5C 212.809,154.292 212.309,152.292 211.5,150.5C 211.5,149.833 211.5,149.167 211.5,148.5C 212.314,146.369 212.814,144.036 213,141.5C 213.483,142.448 213.649,143.448 213.5,144.5C 217.759,144.003 221.759,144.669 225.5,146.5C 226.172,145.051 226.839,143.718 227.5,142.5 Z"/></g>
<g><path style="opacity:1" fill="#ffb4b7" d="M 151.5,135.5 C 151.5,145.5 151.5,155.5 151.5,165.5C 154.167,165.5 156.833,165.5 159.5,165.5C 159.177,158.978 159.51,152.645 160.5,146.5C 160.5,153.167 160.5,159.833 160.5,166.5C 157.167,166.5 153.833,166.5 150.5,166.5C 150.5,161.5 150.5,156.5 150.5,151.5C 150.179,145.974 150.512,140.64 151.5,135.5 Z"/></g>
<g><path style="opacity:1" fill="#ffb1b2" d="M 198.5,143.5 C 199.483,147.298 199.817,151.298 199.5,155.5C 199.5,159.167 199.5,162.833 199.5,166.5C 196.287,166.81 193.287,166.477 190.5,165.5C 193.167,165.5 195.833,165.5 198.5,165.5C 198.5,158.167 198.5,150.833 198.5,143.5 Z"/></g>
<g><path style="opacity:1" fill="#ff9b9e" d="M 183.5,152.5 C 185.833,152.5 188.167,152.5 190.5,152.5C 190.411,159.063 187.078,161.563 180.5,160C 178.853,156.471 179.853,153.971 183.5,152.5 Z"/></g>
<g><path style="opacity:1" fill="#ff9b94" d="M 389.5,162.5 C 389.833,162.5 390.167,162.5 390.5,162.5C 390.5,168.833 390.5,175.167 390.5,181.5C 390.167,181.5 389.833,181.5 389.5,181.5C 389.714,179.856 389.38,178.356 388.5,177C 258.488,176.173 128.821,176.34 -0.5,177.5C -0.5,174.833 -0.5,172.167 -0.5,169.5C 128.428,170.341 257.261,170.341 386,169.5C 387,170.167 388,170.833 389,171.5C 389.498,168.518 389.665,165.518 389.5,162.5 Z"/></g>
<g><path style="opacity:1" fill="#ff9e91" d="M 389.5,181.5 C 389.665,184.518 389.498,187.518 389,190.5C 388.311,191.357 387.478,192.023 386.5,192.5C 257.561,192.438 128.561,192.105 -0.5,191.5C -0.5,186.833 -0.5,182.167 -0.5,177.5C 128.821,176.34 258.488,176.173 388.5,177C 389.38,178.356 389.714,179.856 389.5,181.5 Z"/></g>
<g><path style="opacity:1" fill="#ffa18e" d="M 389.5,181.5 C 389.833,181.5 390.167,181.5 390.5,181.5C 390.5,187.833 390.5,194.167 390.5,200.5C 390.167,200.5 389.833,200.5 389.5,200.5C 389.196,199.85 388.863,199.183 388.5,198.5C 258.835,197.5 129.168,197.167 -0.5,197.5C -0.5,195.5 -0.5,193.5 -0.5,191.5C 128.561,192.105 257.561,192.438 386.5,192.5C 387.478,192.023 388.311,191.357 389,190.5C 389.498,187.518 389.665,184.518 389.5,181.5 Z"/></g>
<g><path style="opacity:1" fill="#ffa58b" d="M -0.5,197.5 C 129.168,197.167 258.835,197.5 388.5,198.5C 388.863,199.183 389.196,199.85 389.5,200.5C 389.628,204.881 389.295,209.215 388.5,213.5C 351.094,213.173 313.761,213.507 276.5,214.5C 221.5,214.5 166.5,214.5 111.5,214.5C 74.2394,213.507 36.9061,213.173 -0.5,213.5C -0.5,208.167 -0.5,202.833 -0.5,197.5 Z"/></g>
<g><path style="opacity:1" fill="#ffa788" d="M -0.5,213.5 C 36.9061,213.173 74.2394,213.507 111.5,214.5C 111.5,215.5 111.5,216.5 111.5,217.5C 93.1496,216.192 74.6496,215.526 56,215.5C 36.8187,215.519 17.9854,215.852 -0.5,216.5C -0.5,215.5 -0.5,214.5 -0.5,213.5 Z"/></g>
<g><path style="opacity:1" fill="#ffa788" d="M 389.5,200.5 C 389.833,200.5 390.167,200.5 390.5,200.5C 390.5,206.833 390.5,213.167 390.5,219.5C 389.778,219.918 389.278,220.584 389,221.5C 388.505,219.527 388.338,217.527 388.5,215.5C 351.124,215.179 313.79,215.513 276.5,216.5C 276.5,216.167 276.5,215.833 276.5,215.5C 276.5,215.167 276.5,214.833 276.5,214.5C 313.761,213.507 351.094,213.173 388.5,213.5C 389.295,209.215 389.628,204.881 389.5,200.5 Z"/></g>
<g><path style="opacity:1" fill="#ffd2c2" d="M 111.5,214.5 C 166.5,214.5 221.5,214.5 276.5,214.5C 276.5,214.833 276.5,215.167 276.5,215.5C 221.49,214.838 166.823,215.504 112.5,217.5C 112.167,217.5 111.833,217.5 111.5,217.5C 111.5,216.5 111.5,215.5 111.5,214.5 Z"/></g>
<g><path style="opacity:1" fill="#ffab86" d="M 111.5,217.5 C 111.833,217.5 112.167,217.5 112.5,217.5C 167.336,217.832 222.003,217.499 276.5,216.5C 313.79,215.513 351.124,215.179 388.5,215.5C 388.338,217.527 388.505,219.527 389,221.5C 389.278,220.584 389.778,219.918 390.5,219.5C 390.5,225.833 390.5,232.167 390.5,238.5C 389.698,239.952 389.198,241.618 389,243.5C 388.503,241.19 388.337,238.857 388.5,236.5C 258.984,236.461 129.317,236.461 -0.5,236.5C -0.5,229.833 -0.5,223.167 -0.5,216.5C 17.9854,215.852 36.8187,215.519 56,215.5C 74.6496,215.526 93.1496,216.192 111.5,217.5 Z"/></g>
<g><path style="opacity:1" fill="#ffeae2" d="M 276.5,215.5 C 276.5,215.833 276.5,216.167 276.5,216.5C 222.003,217.499 167.336,217.832 112.5,217.5C 166.823,215.504 221.49,214.838 276.5,215.5 Z"/></g>
<g><path style="opacity:1" fill="#ffb280" d="M 390.5,238.5 C 390.5,244.5 390.5,250.5 390.5,256.5C 390.167,256.5 389.833,256.5 389.5,256.5C 389.631,255.761 389.464,255.094 389,254.5C 388.506,256.134 388.34,257.801 388.5,259.5C 341.173,259.5 293.839,259.5 246.5,259.5C 244.167,259.333 241.833,259.167 239.5,259C 239.833,258.667 240.167,258.333 240.5,258C 239.008,256.009 238.008,253.842 237.5,251.5C 236.817,249.824 235.483,249.157 233.5,249.5C 233.5,256.167 233.5,262.833 233.5,269.5C 232.672,263.013 232.172,256.346 232,249.5C 231.817,252.365 231.317,255.031 230.5,257.5C 227.408,254.645 223.741,253.812 219.5,255C 218.643,255.689 217.977,256.522 217.5,257.5C 220.089,258.205 222.756,258.205 225.5,257.5C 225.5,258.5 225.5,259.5 225.5,260.5C 223.833,260.5 222.167,260.5 220.5,260.5C 219.432,259.566 218.099,259.232 216.5,259.5C 216.5,258.5 216.5,257.5 216.5,256.5C 215.5,256.5 214.5,256.5 213.5,256.5C 210.331,253.888 207.164,253.888 204,256.5C 203.503,254.19 203.337,251.857 203.5,249.5C 202.167,249.5 200.833,249.5 199.5,249.5C 199.5,256.167 199.5,262.833 199.5,269.5C 198.681,266.695 198.181,263.695 198,260.5C 197.79,262.058 197.29,263.391 196.5,264.5C 196.992,255.895 192.992,252.728 184.5,255C 183.117,256.271 182.117,257.771 181.5,259.5C 180.5,262.833 179.5,266.167 178.5,269.5C 178.5,262.833 178.5,256.167 178.5,249.5C 177.167,249.5 175.833,249.5 174.5,249.5C 174.5,256.167 174.5,262.833 174.5,269.5C 173.686,267.369 173.186,265.036 173,262.5C 172.667,263.167 172.333,263.833 172,264.5C 171.601,264.272 171.435,263.938 171.5,263.5C 171.5,261.833 171.5,260.167 171.5,258.5C 168.5,258.5 165.5,258.5 162.5,258.5C 162.5,259.833 162.5,261.167 162.5,262.5C 163.978,262.238 165.311,262.571 166.5,263.5C 163.748,266.134 160.915,266.134 158,263.5C 156.773,259.409 157.606,255.909 160.5,253C 163.86,253.485 167.194,254.318 170.5,255.5C 169.697,250.874 166.864,248.541 162,248.5C 158.537,249.137 155.704,250.803 153.5,253.5C 153.565,253.062 153.399,252.728 153,252.5C 151.833,254.333 150.667,256.167 149.5,258C 149.833,258.333 150.167,258.667 150.5,259C 100.313,259.372 49.9794,259.539 -0.5,259.5C -0.5,251.833 -0.5,244.167 -0.5,236.5C 129.317,236.461 258.984,236.461 388.5,236.5C 388.337,238.857 388.503,241.19 389,243.5C 389.198,241.618 389.698,239.952 390.5,238.5 Z"/></g>
<g><path style="opacity:1" fill="#fff7f1" d="M 171.5,263.5 C 168.584,269.149 163.917,270.982 157.5,269C 155.45,267.035 153.783,264.868 152.5,262.5C 152.368,259.43 152.701,256.43 153.5,253.5C 155.704,250.803 158.537,249.137 162,248.5C 166.864,248.541 169.697,250.874 170.5,255.5C 167.194,254.318 163.86,253.485 160.5,253C 157.606,255.909 156.773,259.409 158,263.5C 160.915,266.134 163.748,266.134 166.5,263.5C 165.311,262.571 163.978,262.238 162.5,262.5C 162.5,261.167 162.5,259.833 162.5,258.5C 165.5,258.5 168.5,258.5 171.5,258.5C 171.5,260.167 171.5,261.833 171.5,263.5 Z"/></g>
<g><path style="opacity:1" fill="#fffefd" d="M 178.5,269.5 C 177.167,269.5 175.833,269.5 174.5,269.5C 174.5,262.833 174.5,256.167 174.5,249.5C 175.833,249.5 177.167,249.5 178.5,249.5C 178.5,256.167 178.5,262.833 178.5,269.5 Z"/></g>
<g><path style="opacity:1" fill="#fffcfb" d="M 237.5,251.5 C 237.5,257.5 237.5,263.5 237.5,269.5C 236.167,269.5 234.833,269.5 233.5,269.5C 233.5,262.833 233.5,256.167 233.5,249.5C 235.483,249.157 236.817,249.824 237.5,251.5 Z"/></g>
<g><path style="opacity:1" fill="#fff9f5" d="M 196.5,264.5 C 194.275,269.109 190.609,270.609 185.5,269C 182.037,266.85 180.704,263.684 181.5,259.5C 182.117,257.771 183.117,256.271 184.5,255C 192.992,252.728 196.992,255.895 196.5,264.5 Z"/></g>
<g><path style="opacity:1" fill="#fffaf7" d="M 213.5,256.5 C 215.979,262.86 214.145,267.194 208,269.5C 206.289,269.561 204.956,268.894 204,267.5C 202.951,269.107 201.451,269.773 199.5,269.5C 199.5,262.833 199.5,256.167 199.5,249.5C 200.833,249.5 202.167,249.5 203.5,249.5C 203.337,251.857 203.503,254.19 204,256.5C 207.164,253.888 210.331,253.888 213.5,256.5 Z"/></g>
<g><path style="opacity:1" fill="#fff7f1" d="M 230.5,257.5 C 230.5,261.5 230.5,265.5 230.5,269.5C 226.601,268.817 222.601,268.65 218.5,269C 216.604,267.192 216.104,265.025 217,262.5C 217.816,261.177 218.983,260.511 220.5,260.5C 222.167,260.5 223.833,260.5 225.5,260.5C 225.5,259.5 225.5,258.5 225.5,257.5C 222.756,258.205 220.089,258.205 217.5,257.5C 217.977,256.522 218.643,255.689 219.5,255C 223.741,253.812 227.408,254.645 230.5,257.5 Z"/></g>
<g><path style="opacity:1" fill="#ffb67d" d="M 237.5,251.5 C 238.008,253.842 239.008,256.009 240.5,258C 240.167,258.333 239.833,258.667 239.5,259C 241.833,259.167 244.167,259.333 246.5,259.5C 293.839,259.5 341.173,259.5 388.5,259.5C 388.34,257.801 388.506,256.134 389,254.5C 389.464,255.094 389.631,255.761 389.5,256.5C 389.666,260.846 389.499,265.179 389,269.5C 388.503,266.854 388.336,264.187 388.5,261.5C 338.5,261.5 288.5,261.5 238.5,261.5C 238.806,264.385 238.473,267.052 237.5,269.5C 237.5,263.5 237.5,257.5 237.5,251.5 Z"/></g>
<g><path style="opacity:1" fill="#ffb57c" d="M 153.5,253.5 C 152.701,256.43 152.368,259.43 152.5,262.5C 152.44,263.043 152.107,263.376 151.5,263.5C 100.982,261.511 50.3156,260.844 -0.5,261.5C -0.5,260.833 -0.5,260.167 -0.5,259.5C 49.9794,259.539 100.313,259.372 150.5,259C 150.167,258.667 149.833,258.333 149.5,258C 150.667,256.167 151.833,254.333 153,252.5C 153.399,252.728 153.565,253.062 153.5,253.5 Z"/></g>
<g><path style="opacity:1" fill="#ffba84" d="M 187.5,257.5 C 191.976,257.822 193.476,260.156 192,264.5C 188.509,267.446 186.342,266.612 185.5,262C 185.519,260.167 186.185,258.667 187.5,257.5 Z"/></g>
<g><path style="opacity:1" fill="#ffb87a" d="M 233.5,269.5 C 234.833,269.5 236.167,269.5 237.5,269.5C 238.473,267.052 238.806,264.385 238.5,261.5C 288.5,261.5 338.5,261.5 388.5,261.5C 388.336,264.187 388.503,266.854 389,269.5C 389.499,265.179 389.666,260.846 389.5,256.5C 389.833,256.5 390.167,256.5 390.5,256.5C 390.5,263.5 390.5,270.5 390.5,277.5C 390.167,277.5 389.833,277.5 389.5,277.5C 389.167,273.5 388.833,273.5 388.5,277.5C 258.487,277.173 128.82,277.506 -0.5,278.5C -0.5,272.833 -0.5,267.167 -0.5,261.5C 50.3156,260.844 100.982,261.511 151.5,263.5C 152.107,263.376 152.44,263.043 152.5,262.5C 153.783,264.868 155.45,267.035 157.5,269C 163.917,270.982 168.584,269.149 171.5,263.5C 171.435,263.938 171.601,264.272 172,264.5C 172.333,263.833 172.667,263.167 173,262.5C 173.186,265.036 173.686,267.369 174.5,269.5C 175.833,269.5 177.167,269.5 178.5,269.5C 179.5,266.167 180.5,262.833 181.5,259.5C 180.704,263.684 182.037,266.85 185.5,269C 190.609,270.609 194.275,269.109 196.5,264.5C 197.29,263.391 197.79,262.058 198,260.5C 198.181,263.695 198.681,266.695 199.5,269.5C 201.451,269.773 202.951,269.107 204,267.5C 204.956,268.894 206.289,269.561 208,269.5C 214.145,267.194 215.979,262.86 213.5,256.5C 214.5,256.5 215.5,256.5 216.5,256.5C 216.5,257.5 216.5,258.5 216.5,259.5C 218.099,259.232 219.432,259.566 220.5,260.5C 218.983,260.511 217.816,261.177 217,262.5C 216.104,265.025 216.604,267.192 218.5,269C 222.601,268.65 226.601,268.817 230.5,269.5C 230.5,265.5 230.5,261.5 230.5,257.5C 231.317,255.031 231.817,252.365 232,249.5C 232.172,256.346 232.672,263.013 233.5,269.5 Z"/></g>
<g><path style="opacity:1" fill="#ffb981" d="M 204.5,257.5 C 206.144,257.286 207.644,257.62 209,258.5C 209.769,261.099 209.602,263.599 208.5,266C 206.633,266.711 205.133,266.211 204,264.5C 203.297,262.071 203.463,259.738 204.5,257.5 Z"/></g>
<g><path style="opacity:1" fill="#ffb87d" d="M 220.5,263.5 C 222.288,263.215 223.955,263.548 225.5,264.5C 224.332,266.217 222.665,266.884 220.5,266.5C 220.5,265.5 220.5,264.5 220.5,263.5 Z"/></g>
<g><path style="opacity:1" fill="#ffbc77" d="M 389.5,277.5 C 389.666,282.844 389.499,288.177 389,293.5C 388.502,290.183 388.335,286.85 388.5,283.5C 258.833,283.5 129.167,283.5 -0.5,283.5C -0.5,281.833 -0.5,280.167 -0.5,278.5C 128.82,277.506 258.487,277.173 388.5,277.5C 388.833,273.5 389.167,273.5 389.5,277.5 Z"/></g>
<g><path style="opacity:1" fill="#ffbf74" d="M 389.5,277.5 C 389.833,277.5 390.167,277.5 390.5,277.5C 390.5,283.5 390.5,289.5 390.5,295.5C 389.883,295.389 389.383,295.056 389,294.5C 388.599,296.521 387.432,297.855 385.5,298.5C 256.957,297.71 128.29,297.71 -0.5,298.5C -0.5,293.5 -0.5,288.5 -0.5,283.5C 129.167,283.5 258.833,283.5 388.5,283.5C 388.335,286.85 388.502,290.183 389,293.5C 389.499,288.177 389.666,282.844 389.5,277.5 Z"/></g>
<g><path style="opacity:1" fill="#ffc271" d="M 390.5,295.5 C 390.5,301.5 390.5,307.5 390.5,313.5C 390.167,313.5 389.833,313.5 389.5,313.5C 388.527,311.052 388.194,308.385 388.5,305.5C 258.833,305.5 129.167,305.5 -0.5,305.5C -0.5,303.167 -0.5,300.833 -0.5,298.5C 128.29,297.71 256.957,297.71 385.5,298.5C 387.432,297.855 388.599,296.521 389,294.5C 389.383,295.056 389.883,295.389 390.5,295.5 Z"/></g>
<g><path style="opacity:1" fill="#ffc56e" d="M -0.5,305.5 C 129.167,305.5 258.833,305.5 388.5,305.5C 388.194,308.385 388.527,311.052 389.5,313.5C 389.586,314.496 389.252,315.329 388.5,316C 259.597,316.168 130.764,316.668 2,317.5C 1.66667,317.167 1.33333,316.833 1,316.5C 0.721579,317.416 0.221579,318.082 -0.5,318.5C -0.5,314.167 -0.5,309.833 -0.5,305.5 Z"/></g>
<g><path style="opacity:1" fill="#ffc86b" d="M 389.5,313.5 C 389.833,313.5 390.167,313.5 390.5,313.5C 390.5,319.5 390.5,325.5 390.5,331.5C 389.833,333.5 389.167,335.5 388.5,337.5C 388.5,334.167 388.5,330.833 388.5,327.5C 258.833,327.5 129.167,327.5 -0.5,327.5C -0.5,324.5 -0.5,321.5 -0.5,318.5C 0.221579,318.082 0.721579,317.416 1,316.5C 1.33333,316.833 1.66667,317.167 2,317.5C 130.764,316.668 259.597,316.168 388.5,316C 389.252,315.329 389.586,314.496 389.5,313.5 Z"/></g>
<g><path style="opacity:1" fill="#ffcc68" d="M -0.5,327.5 C 129.167,327.5 258.833,327.5 388.5,327.5C 388.5,330.833 388.5,334.167 388.5,337.5C 258.825,339.172 129.158,340.172 -0.5,340.5C -0.5,336.167 -0.5,331.833 -0.5,327.5 Z"/></g>
<g><path style="opacity:1" fill="#ffd065" d="M 390.5,331.5 C 390.5,337.5 390.5,343.5 390.5,349.5C 389.527,351.948 389.194,354.615 389.5,357.5C 388.85,355.553 387.683,353.887 386,352.5C 257.261,353.341 128.428,353.341 -0.5,352.5C -0.5,348.5 -0.5,344.5 -0.5,340.5C 129.158,340.172 258.825,339.172 388.5,337.5C 389.167,335.5 389.833,333.5 390.5,331.5 Z"/></g>
<g><path style="opacity:1" fill="#ffd362" d="M -0.5,352.5 C 128.428,353.341 257.261,353.341 386,352.5C 387.683,353.887 388.85,355.553 389.5,357.5C 389.663,359.857 389.497,362.19 389,364.5C 388.804,362.096 387.638,360.429 385.5,359.5C 256.807,359.807 128.14,360.14 -0.5,360.5C -0.5,357.833 -0.5,355.167 -0.5,352.5 Z"/></g>
<g><path style="opacity:1" fill="#ffd65f" d="M 390.5,349.5 C 390.5,356.5 390.5,363.5 390.5,370.5C 389.532,372.607 389.198,374.941 389.5,377.5C 388.732,376.737 388.232,375.737 388,374.5C 258.606,374.894 129.106,374.894 -0.5,374.5C -0.5,369.833 -0.5,365.167 -0.5,360.5C 128.14,360.14 256.807,359.807 385.5,359.5C 387.638,360.429 388.804,362.096 389,364.5C 389.497,362.19 389.663,359.857 389.5,357.5C 389.194,354.615 389.527,351.948 390.5,349.5 Z"/></g>
<g><path style="opacity:1" fill="#ffda5c" d="M -0.5,374.5 C 129.106,374.894 258.606,374.894 388,374.5C 388.232,375.737 388.732,376.737 389.5,377.5C 389.5,380.167 389.5,382.833 389.5,385.5C 388.549,384.081 388.216,382.415 388.5,380.5C 258.833,380.5 129.167,380.5 -0.5,380.5C -0.5,378.5 -0.5,376.5 -0.5,374.5 Z"/></g>
<g><path style="opacity:1" fill="#ffdc5b" d="M -0.5,380.5 C 129.167,380.5 258.833,380.5 388.5,380.5C 388.216,382.415 388.549,384.081 389.5,385.5C 389.5,386.833 389.5,388.167 389.5,389.5C 259.5,389.5 129.5,389.5 -0.5,389.5C -0.5,386.5 -0.5,383.5 -0.5,380.5 Z"/></g>
<g><path style="opacity:1" fill="#ffda4c" d="M 390.5,370.5 C 390.5,377.167 390.5,383.833 390.5,390.5C 260.167,390.5 129.833,390.5 -0.5,390.5C -0.5,390.167 -0.5,389.833 -0.5,389.5C 129.5,389.5 259.5,389.5 389.5,389.5C 389.5,388.167 389.5,386.833 389.5,385.5C 389.5,382.833 389.5,380.167 389.5,377.5C 389.198,374.941 389.532,372.607 390.5,370.5 Z"/></g>
<g><path style="opacity:1" fill="#ffe9b0" d="M 390.5,-0.5 C 390.833,-0.5 391.167,-0.5 391.5,-0.5C 391.5,130.167 391.5,260.833 391.5,391.5C 260.833,391.5 130.167,391.5 -0.5,391.5C -0.5,391.167 -0.5,390.833 -0.5,390.5C 129.833,390.5 260.167,390.5 390.5,390.5C 390.5,383.833 390.5,377.167 390.5,370.5C 390.5,363.5 390.5,356.5 390.5,349.5C 390.5,343.5 390.5,337.5 390.5,331.5C 390.5,325.5 390.5,319.5 390.5,313.5C 390.5,307.5 390.5,301.5 390.5,295.5C 390.5,289.5 390.5,283.5 390.5,277.5C 390.5,270.5 390.5,263.5 390.5,256.5C 390.5,250.5 390.5,244.5 390.5,238.5C 390.5,232.167 390.5,225.833 390.5,219.5C 390.5,213.167 390.5,206.833 390.5,200.5C 390.5,194.167 390.5,187.833 390.5,181.5C 390.5,175.167 390.5,168.833 390.5,162.5C 390.5,155.167 390.5,147.833 390.5,140.5C 390.5,133.167 390.5,125.833 390.5,118.5C 390.5,113.833 390.5,109.167 390.5,104.5C 390.5,98.5 390.5,92.5 390.5,86.5C 390.5,80.5 390.5,74.5 390.5,68.5C 390.5,62.5 390.5,56.5 390.5,50.5C 390.5,44.1667 390.5,37.8333 390.5,31.5C 390.5,20.8333 390.5,10.1667 390.5,-0.5 Z"/></g>
</svg>
